<?xml version="1.0" ?><svg id="Layer_1" style="enable-background:new 0 0 256 256;" version="1.1" viewBox="0 0 256 256" xml:space="preserve" xmlns="http://www.w3.org/2000/svg" xmlns:xlink="http://www.w3.org/1999/xlink"><style type="text/css">
	.st0{fill:#6BDDDD;}
	.st1{fill:#F9CFCF;}
	.st2{fill:#4671C6;}
	.st3{fill:#3762CC;}
	.st4{fill:#E0EBFC;}
	.st5{fill:#A4C9FF;}
	.st6{fill:#B9BEFC;}
	.st7{fill:#FFEA94;}
	.st8{fill:#F9A7A7;}
	.st9{fill:#FFEA92;}
	.st10{fill:#FFE164;}
	.st11{fill:#FFDC85;}
	.st12{fill:#EAA97D;}
	.st13{fill:#FFA730;}
</style><g><g><path class="st4" d="M226.148,224.333H29.852c-7.958,0-14.409-6.451-14.409-14.409V46.076c0-7.958,6.451-14.409,14.409-14.409    h196.297c7.958,0,14.409,6.451,14.409,14.409v163.848C240.558,217.882,234.107,224.333,226.148,224.333z"/></g><g><path class="st2" d="M240.558,62.62V46.117c0-7.981-6.433-14.45-14.369-14.45H29.811c-7.936,0-14.369,6.469-14.369,14.45V62.62    v2.763v4.478h225.116L240.558,62.62L240.558,62.62z"/></g><g><path class="st1" d="M219.457,50.553l2.55-2.601c1.644-1.677,1.783-4.554,0.309-6.424c-1.476-1.869-4.001-2.03-5.646-0.351    l-3.202,3.266l-3.202-3.266c-1.646-1.677-4.17-1.52-5.646,0.351c-1.474,1.87-1.335,4.747,0.308,6.424l2.55,2.601l-2.55,2.601    c-1.644,1.677-1.783,4.553-0.308,6.423c0.791,1.002,1.882,1.513,2.979,1.513c0.949,0,1.904-0.383,2.667-1.162l3.202-3.266    l3.202,3.266c0.763,0.779,1.716,1.162,2.667,1.162c1.097,0,2.189-0.51,2.979-1.513c1.474-1.87,1.335-4.747-0.309-6.423    L219.457,50.553z"/></g><g><path class="st1" d="M188.334,55.784h-8.471c-1.372,0-2.484-1.112-2.484-2.484V42.978c0-1.372,1.112-2.484,2.484-2.484h8.471    c1.372,0,2.484,1.112,2.484,2.484V53.3C190.817,54.672,189.705,55.784,188.334,55.784z"/></g><g><path class="st1" d="M156.138,58.099h-12.702c-2.598,0-4.704-2.396-4.704-5.352c0-2.956,2.106-5.352,4.704-5.352h12.702    c2.598,0,4.704,2.396,4.704,5.352C160.842,55.703,158.736,58.099,156.138,58.099z"/></g><g><path class="st4" d="M181.614,60.612h-8.471c-1.372,0-2.484-1.112-2.484-2.484V47.807c0-1.372,1.112-2.484,2.484-2.484h8.471    c1.372,0,2.484,1.112,2.484,2.484v10.322C184.098,59.5,182.986,60.612,181.614,60.612z"/></g><g><path class="st3" d="M226.148,226.333H29.852c-9.048,0-16.409-7.361-16.409-16.409V46.076c0-9.048,7.361-16.409,16.409-16.409    h196.297c9.048,0,16.41,7.361,16.41,16.409v163.848C242.558,218.972,235.197,226.333,226.148,226.333z M29.852,33.667    c-6.842,0-12.409,5.566-12.409,12.409v163.848c0,6.843,5.567,12.409,12.409,12.409h196.297c6.843,0,12.41-5.566,12.41-12.409    V46.076c0-6.843-5.567-12.409-12.41-12.409H29.852z"/></g><g><path class="st4" d="M124,60.612H30.319c-2.209,0-4-1.791-4-4V46c0-2.209,1.791-4,4-4H124c2.209,0,4,1.791,4,4v10.612    C128,58.821,126.209,60.612,124,60.612z"/></g><g><ellipse class="st1" cx="126.733" cy="126.587" rx="45.058" ry="45.024"/></g><g><path class="st8" d="M126.733,173.636c-25.948,0-47.058-21.104-47.058-47.045s21.11-47.045,47.058-47.045    s47.058,21.104,47.058,47.045S152.681,173.636,126.733,173.636z M126.733,83.546c-23.742,0-43.058,19.31-43.058,43.045    s19.315,43.045,43.058,43.045s43.058-19.31,43.058-43.045S150.475,83.546,126.733,83.546z"/></g><g><path class="st8" d="M126.733,173.61c-15.304,0-27.292-20.655-27.292-47.023s11.988-47.023,27.292-47.023    c15.303,0,27.291,20.655,27.291,47.023S142.036,173.61,126.733,173.61z M126.733,83.563c-12.843,0-23.292,19.3-23.292,43.023    s10.449,43.023,23.292,43.023s23.291-19.3,23.291-43.023S139.576,83.563,126.733,83.563z"/></g><g><path class="st8" d="M125.997,110.577c-12.569,0-24.386-4.891-33.274-13.771c-0.77-0.77-0.783-2.014-0.03-2.8    c8.962-9.341,21.027-14.485,33.973-14.485c12.57,0,24.387,4.892,33.274,13.772c0.77,0.77,0.783,2.014,0.03,2.8    C151.008,105.434,138.943,110.577,125.997,110.577z M97,95.36c7.946,7.249,18.166,11.217,28.997,11.217    c11.175,0,21.633-4.189,29.667-11.839c-7.946-7.249-18.166-11.218-28.997-11.218C115.491,83.521,105.033,87.71,97,95.36z"/></g><g><path class="st8" d="M126.855,173.61c-12.569,0-24.386-4.891-33.274-13.771c-0.77-0.77-0.783-2.014-0.03-2.8    c8.962-9.341,21.027-14.485,33.973-14.485c12.57,0,24.387,4.891,33.274,13.771c0.77,0.77,0.783,2.014,0.03,2.8    C151.867,168.466,139.802,173.61,126.855,173.61z M97.858,158.394c7.946,7.249,18.166,11.217,28.997,11.217    c11.176,0,21.634-4.189,29.667-11.84c-7.946-7.249-18.166-11.217-28.998-11.217C116.349,146.554,105.891,150.743,97.858,158.394z"/></g><g><path class="st8" d="M171.791,129.938H81.675c-1.104,0-2-0.896-2-2s0.896-2,2-2h90.115c1.104,0,2,0.896,2,2    S172.895,129.938,171.791,129.938z"/></g><g><path class="st3" d="M195,208.25H61c-2.757,0-5-2.243-5-5v-19c0-2.757,2.243-5,5-5h134c2.757,0,5,2.243,5,5v19    C200,206.007,197.757,208.25,195,208.25z M61,183.25c-0.551,0-1,0.448-1,1v19c0,0.552,0.449,1,1,1h134c0.551,0,1-0.448,1-1v-19    c0-0.552-0.449-1-1-1H61z"/></g><g><path class="st12" d="M192.24,171.792L192.24,171.792c-2.055,2.055-5.387,2.055-7.442,0l-17.513-17.513    c-0.658-0.658-0.658-1.724,0-2.381l5.061-5.061c0.658-0.658,1.724-0.658,2.381,0l17.513,17.513    C194.295,166.405,194.295,169.737,192.24,171.792z"/></g><g><path class="st9" d="M172.289,146.894l-5.625-5.625c-0.708,0.914-1.473,1.798-2.311,2.636c-0.838,0.838-1.722,1.603-2.636,2.311    l5.625,5.625L172.289,146.894z"/></g><g><path class="st0" d="M164.265,104.687c-10.836-10.836-28.429-10.876-39.217-0.088c-10.788,10.788-10.749,28.381,0.088,39.217    c10.836,10.836,28.429,10.876,39.217,0.088C175.141,133.117,175.101,115.524,164.265,104.687z M158.929,138.481    c-3.778,3.778-8.818,5.851-14.191,5.838c-5.37-0.013-10.414-2.108-14.205-5.899c-7.846-7.846-7.873-20.585-0.061-28.397    c3.777-3.778,8.817-5.851,14.191-5.838c5.37,0.013,10.415,2.108,14.206,5.899c3.792,3.792,5.887,8.838,5.899,14.209    C164.778,129.666,162.705,134.705,158.929,138.481z"/></g><g><path class="st3" d="M188.519,175.329c-1.859,0-3.719-0.707-5.135-2.123l-17.513-17.513c-1.435-1.437-1.435-3.773-0.001-5.209    l5.062-5.062c1.437-1.436,3.774-1.435,5.209-0.001l17.513,17.514c1.372,1.372,2.127,3.196,2.127,5.136s-0.756,3.764-2.127,5.135    C192.238,174.622,190.378,175.329,188.519,175.329z M168.922,153.088l17.29,17.29c1.273,1.272,3.342,1.271,4.614,0    c0.616-0.616,0.956-1.436,0.956-2.307c0-0.872-0.339-1.691-0.956-2.308l-17.289-17.289L168.922,153.088z"/></g><g><path class="st3" d="M167.341,153.841c-0.512,0-1.023-0.195-1.414-0.586l-5.625-5.625c-0.406-0.406-0.618-0.967-0.582-1.54    s0.317-1.104,0.771-1.455c0.904-0.7,1.704-1.401,2.446-2.145c0.745-0.745,1.446-1.545,2.144-2.446    c0.352-0.454,0.881-0.735,1.455-0.771c0.569-0.033,1.135,0.177,1.541,0.582l5.625,5.625c0.375,0.375,0.586,0.884,0.586,1.414    s-0.211,1.039-0.586,1.414l-4.948,4.947C168.365,153.646,167.853,153.841,167.341,153.841z M164.679,146.35l2.663,2.663    l2.119-2.119l-2.663-2.663c-0.339,0.378-0.684,0.741-1.031,1.089C165.416,145.67,165.054,146.013,164.679,146.35z"/></g><g><path class="st3" d="M144.824,153.969c-7.635,0.001-15.279-2.913-21.103-8.737c-11.616-11.616-11.656-30.479-0.088-42.046    c5.58-5.58,13.015-8.651,20.94-8.651c0.023,0,0.045,0,0.069,0c7.948,0.018,15.419,3.121,21.036,8.739l0,0l0,0    c5.618,5.617,8.721,13.088,8.739,21.036c0.018,7.951-3.055,15.412-8.651,21.009C159.999,151.086,152.416,153.969,144.824,153.969z     M144.574,98.534c-6.857,0-13.288,2.655-18.113,7.479c-10.008,10.008-9.969,26.332,0.088,36.39    c10.057,10.056,26.381,10.095,36.389,0.087c4.838-4.839,7.495-11.292,7.479-18.172c-0.016-6.883-2.703-13.353-7.567-18.217l0,0    c-4.865-4.864-11.334-7.552-18.217-7.567C144.614,98.534,144.594,98.534,144.574,98.534z M144.791,146.318    c-0.019,0-0.039,0-0.058,0c-5.902-0.014-11.447-2.316-15.615-6.484c-4.171-4.171-6.476-9.719-6.488-15.621    c-0.013-5.905,2.27-11.447,6.427-15.604c4.156-4.156,9.678-6.411,15.61-6.424c5.902,0.015,11.448,2.318,15.615,6.485    c4.168,4.167,6.472,9.714,6.485,15.618c0.013,5.909-2.268,11.451-6.423,15.606l0,0C156.2,144.039,150.678,146.318,144.791,146.318    z M144.613,106.186c-4.822,0-9.34,1.864-12.728,5.252c-3.399,3.399-5.266,7.934-5.255,12.767    c0.011,4.838,1.898,9.384,5.316,12.802c3.415,3.414,7.959,5.301,12.796,5.313c4.838-0.021,9.373-1.853,12.772-5.251l0,0    c3.397-3.397,5.262-7.932,5.251-12.77c-0.011-4.839-1.898-9.384-5.313-12.799c-3.415-3.414-7.959-5.301-12.796-5.313    C144.643,106.186,144.627,106.186,144.613,106.186z M158.929,138.481h0.01H158.929z"/></g><g><path class="st5" d="M68.419,190.518c-0.244,0-0.483,0.022-0.712,0.063c-0.538,0.098-1.03-0.311-1.03-0.858v-0.687    c0-0.485-0.393-0.878-0.878-0.878h-0.738c-0.485,0-0.878,0.393-0.878,0.878v8.943c0,0.485,0.393,0.878,0.878,0.878h0.738    c0.485,0,0.878-0.393,0.878-0.878v-3.659c0-0.999,0.445-1.505,1.322-1.505c1.082,0,1.309,0.818,1.309,1.505v3.659    c0,0.485,0.393,0.878,0.878,0.878h0.725c0.485,0,0.878-0.393,0.878-0.878v-3.882C71.789,191.957,70.435,190.518,68.419,190.518z"/></g><g><path class="st5" d="M77.489,191.977v-0.462c0-0.485-0.393-0.878-0.878-0.878h0c-0.485,0-0.878-0.393-0.878-0.878v-0.04    c0-0.485-0.393-0.878-0.878-0.878h-0.751c-0.485,0-0.878,0.393-0.878,0.878v0.918h-0.852v2.219h0.852v3.497    c0,1.144,0.448,2.506,2.584,2.506h0.802c0.485,0,0.878-0.393,0.878-0.878v-0.489c0-0.485-0.393-0.878-0.878-0.878h-0.54    c-0.236,0-0.306-0.039-0.31-0.039c-0.003-0.005-0.029-0.057-0.029-0.222v-2.619c0-0.485,0.393-0.878,0.878-0.878h0    C77.096,192.855,77.489,192.462,77.489,191.977z"/></g><g><path class="st5" d="M83.544,191.977v-0.462c0-0.485-0.393-0.878-0.878-0.878l0,0c-0.485,0-0.878-0.393-0.878-0.878v-0.04    c0-0.485-0.393-0.878-0.878-0.878h-0.751c-0.485,0-0.878,0.393-0.878,0.878v0.918h-0.852v2.219h0.852v3.497    c0,1.144,0.448,2.506,2.584,2.506h0.802c0.485,0,0.878-0.393,0.878-0.878v-0.489c0-0.485-0.393-0.878-0.878-0.878h-0.539    c-0.236,0-0.306-0.039-0.31-0.039c-0.003-0.005-0.029-0.057-0.029-0.222v-2.619c0-0.485,0.393-0.878,0.878-0.878l0,0    C83.151,192.855,83.544,192.462,83.544,191.977z"/></g><g><path class="st5" d="M89.294,190.518c-0.732,0-1.434,0.202-2.017,0.564v-0.446h-1.616c-0.485,0-0.878,0.393-0.878,0.878v9.9    c0,0.485,0.393,0.878,0.878,0.878h0.738c0.485,0,0.878-0.393,0.878-0.878v-1.656c0-0.571,0.526-1.036,1.08-0.896    c0.283,0.071,0.595,0.114,0.937,0.114c2.221,0,3.895-1.832,3.895-4.262C93.189,192.283,91.551,190.518,89.294,190.518z     M87.277,194.741c0-1.264,0.85-1.925,1.689-1.925c0.82,0,1.702,0.594,1.702,1.898c0,1.289-0.856,1.964-1.702,1.964    C88.127,196.678,87.277,196.013,87.277,194.741z"/></g><g><path class="st5" d="M98.041,193.837h2.284l-0.029-0.527c-0.092-1.696-1.384-2.792-3.291-2.792c-1.899,0-3.278,1.087-3.278,2.584    c0,1.617,1.269,2.207,2.372,2.541h-2.515l0.026,0.525c0.082,1.627,1.559,2.808,3.514,2.808c1.923,0,3.266-1.084,3.266-2.651    C100.341,194.743,99.14,194.176,98.041,193.837z M96.953,192.776c0.299,0,0.808,0.078,0.852,0.603l0.033,0.398    c-0.123-0.036-0.243-0.069-0.36-0.102c-0.583-0.161-1.244-0.344-1.244-0.587C96.234,192.798,96.784,192.776,96.953,192.776z     M96.679,195.806c0.524,0.14,1.242,0.332,1.242,0.546c0,0.252-0.414,0.365-0.824,0.365c-0.515,0-0.912-0.26-0.943-0.618    l-0.04-0.451C96.31,195.707,96.502,195.758,96.679,195.806z"/></g><g><path class="st5" d="M102.834,193.445c0.81,0,1.444-0.64,1.444-1.457s-0.634-1.457-1.444-1.457c-0.817,0-1.457,0.64-1.457,1.457    S102.017,193.445,102.834,193.445z"/></g><g><path class="st5" d="M102.834,196.036c-0.817,0-1.457,0.64-1.457,1.457s0.64,1.457,1.457,1.457c0.81,0,1.444-0.64,1.444-1.457    S103.643,196.036,102.834,196.036z"/></g><g><path class="st5" d="M108.254,186.156l-3.369,13.911c-0.134,0.553,0.285,1.085,0.854,1.085h0.691c0.405,0,0.758-0.277,0.853-0.671    l3.381-13.911c0.134-0.553-0.284-1.086-0.853-1.086h-0.703C108.702,185.485,108.349,185.762,108.254,186.156z"/></g><g><path class="st5" d="M113.465,186.156l-3.369,13.911c-0.134,0.553,0.285,1.085,0.854,1.085h0.691c0.405,0,0.758-0.277,0.853-0.671    l3.381-13.911c0.134-0.553-0.284-1.086-0.853-1.086h-0.703C113.913,185.485,113.561,185.762,113.465,186.156z"/></g></g></svg>