<?xml version="1.0" ?><svg enable-background="new 0 0 256 256" id="Layer_1" version="1.1" viewBox="0 0 256 256" xml:space="preserve" xmlns="http://www.w3.org/2000/svg" xmlns:xlink="http://www.w3.org/1999/xlink"><g><g><path d="M127.218,71.065L66.906,10.753c-10.337-10.337-27.098-10.337-37.435,0L10.753,29.471    c-10.337,10.337-10.337,27.098,0,37.435l60.312,60.312c10.337,10.337,27.098,10.337,37.435,0l18.718-18.718    C137.555,98.163,137.555,81.403,127.218,71.065z M112.66,93.942L93.942,112.66c-2.293,2.294-6.025,2.294-8.319,0L25.311,52.348    c-2.294-2.294-2.294-6.025,0-8.319l18.718-18.718c2.293-2.293,6.025-2.293,8.319,0l60.312,60.312    C114.953,87.917,114.953,91.649,112.66,93.942z" fill="#4671C6"/></g><g><path d="M245.247,189.094l-60.312-60.312c-10.337-10.337-27.098-10.337-37.435,0L128.782,147.5    c-10.337,10.337-10.337,27.098,0,37.435l60.312,60.312c10.337,10.337,27.098,10.337,37.435,0l18.718-18.718    C255.584,216.192,255.584,199.432,245.247,189.094z M230.689,211.971l-18.718,18.718c-2.293,2.294-6.025,2.294-8.319,0    l-60.312-60.312c-2.294-2.294-2.294-6.025,0-8.319l18.718-18.718c2.293-2.293,6.025-2.293,8.319,0l60.312,60.312    C232.982,205.946,232.982,209.678,230.689,211.971z" fill="#4671C6"/></g><g><path d="M89.783,136.958c-7.291,0-14.582-2.775-20.132-8.326L9.339,68.32c-11.101-11.101-11.101-29.163,0-40.263    L28.057,9.339c11.101-11.101,29.163-11.1,40.263,0l60.313,60.313c11.101,11.101,11.101,29.163,0,40.263l-18.718,18.718    C104.364,134.183,97.074,136.958,89.783,136.958z M48.188,5.011c-6.266,0-12.533,2.385-17.303,7.156L12.167,30.885    c-9.541,9.541-9.541,25.066,0,34.607l60.313,60.313c9.542,9.542,25.066,9.541,34.607,0l18.718-18.718    c9.541-9.541,9.541-25.066,0-34.607L65.492,12.167C60.721,7.396,54.455,5.011,48.188,5.011z M89.783,116.38    c-2.107,0-4.087-0.819-5.574-2.306L23.897,53.762c-1.487-1.487-2.306-3.466-2.306-5.573c0-2.107,0.819-4.087,2.306-5.574    l18.718-18.718c1.487-1.487,3.466-2.306,5.574-2.306c2.107,0,4.086,0.819,5.573,2.306l60.313,60.313    c1.487,1.487,2.306,3.466,2.306,5.574c0,2.107-0.819,4.086-2.306,5.573l-18.718,18.718C93.87,115.562,91.89,116.38,89.783,116.38z     M48.188,25.591c-1.039,0-2.014,0.403-2.746,1.134L26.725,45.443c-0.731,0.731-1.134,1.707-1.134,2.746    c0,1.039,0.403,2.014,1.134,2.745l60.313,60.313c1.462,1.463,4.027,1.463,5.491,0l18.718-18.718    c0.731-0.731,1.134-1.707,1.134-2.745c0-1.039-0.403-2.014-1.134-2.746L50.934,26.725C50.202,25.994,49.227,25.591,48.188,25.591z    " fill="#3762CC"/></g><g><path d="M207.812,254.987c-7.291,0-14.582-2.775-20.132-8.326l-60.313-60.313    c-11.101-11.101-11.101-29.163,0-40.263l18.718-18.718c11.101-11.101,29.163-11.1,40.263,0l60.313,60.313    c11.101,11.101,11.101,29.163,0,40.263l-18.718,18.718C222.393,252.211,215.103,254.987,207.812,254.987z M166.217,123.04    c-6.267,0-12.533,2.385-17.304,7.156l-18.718,18.718c-9.541,9.541-9.541,25.066,0,34.607l60.313,60.313    c9.541,9.541,25.065,9.542,34.607,0l18.718-18.718c9.541-9.541,9.541-25.066,0-34.607l-60.313-60.313    C178.75,125.425,172.483,123.04,166.217,123.04z M207.812,234.409c-2.107,0-4.086-0.819-5.573-2.306l-60.313-60.313    c-1.487-1.487-2.306-3.466-2.306-5.574c0-2.107,0.819-4.086,2.306-5.573l18.718-18.718c1.487-1.487,3.466-2.306,5.573-2.306    c2.107,0,4.087,0.819,5.574,2.306l60.313,60.313c1.487,1.487,2.306,3.466,2.306,5.573c0,2.107-0.819,4.087-2.306,5.574    l-18.718,18.718C211.898,233.59,209.919,234.409,207.812,234.409z M166.217,143.62c-1.039,0-2.014,0.403-2.745,1.134    l-18.718,18.718c-0.731,0.731-1.134,1.707-1.134,2.745c0,1.039,0.403,2.014,1.134,2.746l60.313,60.313    c1.463,1.463,4.028,1.463,5.491,0l18.718-18.718c0.731-0.731,1.134-1.707,1.134-2.746c0-1.039-0.403-2.014-1.134-2.745    l-60.313-60.313C168.231,144.022,167.256,143.62,166.217,143.62z" fill="#3762CC"/></g><g><path d="M99.924,72.887l83.189,83.189c4.02,4.02,4.02,10.538,0,14.558l-12.478,12.478    c-4.02,4.02-10.538,4.02-14.558,0L72.887,99.924c-4.02-4.02-4.02-10.538,0-14.558l12.478-12.478    C89.386,68.867,95.904,68.867,99.924,72.887z" fill="#A4C9FF"/></g><g><path d="M163.355,188.122c-3.148,0-6.296-1.198-8.693-3.595l-83.189-83.189c-4.793-4.793-4.793-12.593,0-17.386    l12.479-12.479c4.793-4.795,12.592-4.793,17.386,0c0,0,0,0,0,0l83.189,83.189c4.793,4.793,4.793,12.593,0,17.386l-12.479,12.479    C169.652,186.924,166.503,188.122,163.355,188.122z M92.645,71.876c-2.124,0-4.248,0.809-5.865,2.425L74.301,86.78    c-3.233,3.234-3.233,8.496,0,11.73l83.189,83.189c3.234,3.233,8.496,3.233,11.73,0l12.479-12.479c3.233-3.234,3.233-8.496,0-11.73    L98.51,74.301C96.893,72.685,94.769,71.876,92.645,71.876z" fill="#3762CC"/></g></g></svg>