<?xml version="1.0" ?><svg id="Layer_1" style="enable-background:new 0 0 256 256;" version="1.1" viewBox="0 0 256 256" xml:space="preserve" xmlns="http://www.w3.org/2000/svg" xmlns:xlink="http://www.w3.org/1999/xlink"><style type="text/css">
	.st0{fill:#F9CFCF;}
	.st1{fill:#A4C9FF;}
	.st2{fill:#4671C6;}
	.st3{fill:#E0EBFC;}
	.st4{fill:#F9A7A7;}
	.st5{fill:#3762CC;}
	.st6{fill:#6BDDDD;}
	.st7{fill:#FFEA92;}
	.st8{fill:#EAA97D;}
	.st9{fill:#B9BEFC;}
	.st10{fill:#FFEA94;}
	.st11{fill:#FFE164;}
	.st12{fill:#FFDC85;}
	.st13{fill:#383838;}
</style><g><g><path class="st2" d="M128,248H13c-2.761,0-5-2.239-5-5V94.75c0-2.761,2.239-5,5-5h106.063c4.936,0,8.937,4.001,8.937,8.937V248z"/></g><g><path class="st2" d="M128,248h115c2.761,0,5-2.239,5-5V94.75c0-2.761-2.239-5-5-5H136.937c-4.936,0-8.937,4.001-8.937,8.937V248z"/></g><g><path class="st5" d="M128,250H13c-3.859,0-7-3.141-7-7V94.75c0-3.859,3.141-7,7-7h106.063c6.03,0,10.937,4.906,10.937,10.937V248    C130,249.104,129.104,250,128,250z M13,91.75c-1.654,0-3,1.346-3,3V243c0,1.654,1.346,3,3,3h113V98.687    c0-3.825-3.111-6.937-6.937-6.937H13z"/></g><g><path class="st5" d="M243,250H128c-1.104,0-2-0.896-2-2V98.687c0-6.03,4.906-10.937,10.937-10.937H243c3.859,0,7,3.141,7,7V243    C250,246.859,246.859,250,243,250z M130,246h113c1.654,0,3-1.346,3-3V94.75c0-1.654-1.346-3-3-3H136.937    c-3.825,0-6.937,3.111-6.937,6.937V246z"/></g><g><path class="st1" d="M228,81.5v8.25H128H28V81.5c-7.667,0.833-8.108,8.25-8.108,8.25v150H128h108.108v-150    C236.108,89.75,235.667,82.333,228,81.5z"/></g><g><path class="st5" d="M236.108,241.75H19.892c-1.104,0-2-0.896-2-2v-150c0-0.04,0.001-0.079,0.004-0.119    c0.188-3.148,2.495-9.315,9.889-10.119c0.569-0.063,1.129,0.121,1.552,0.5S30,80.932,30,81.5v6.25h196V81.5    c0-0.568,0.241-1.109,0.664-1.488c0.423-0.38,0.985-0.564,1.552-0.5c7.394,0.804,9.701,6.971,9.889,10.119    c0.003,0.04,0.004,0.079,0.004,0.119v150C238.108,240.854,237.213,241.75,236.108,241.75z M21.892,237.75h212.217V89.824    c-0.055-0.643-0.524-4.324-4.108-5.793v5.719c0,1.104-0.896,2-2,2H28c-1.104,0-2-0.896-2-2v-5.717    c-3.639,1.495-4.067,5.278-4.108,5.786V237.75z"/></g><g><path class="st3" d="M128,239.75H28V81.5h91.783c4.538,0,8.217,3.679,8.217,8.217V239.75z"/></g><g><path class="st3" d="M128,239.75h100V81.5h-91.783c-4.538,0-8.217,3.679-8.217,8.217V239.75z"/></g><g><path class="st9" d="M214.833,110.859h-71c-1.933,0-3.5-1.567-3.5-3.5v0c0-1.933,1.567-3.5,3.5-3.5h71c1.933,0,3.5,1.567,3.5,3.5    v0C218.333,109.292,216.766,110.859,214.833,110.859z"/></g><g><path class="st9" d="M214.833,130.859h-71c-1.933,0-3.5-1.567-3.5-3.5v0c0-1.933,1.567-3.5,3.5-3.5h71c1.933,0,3.5,1.567,3.5,3.5    v0C218.333,129.292,216.766,130.859,214.833,130.859z"/></g><g><path class="st9" d="M214.833,150.859h-71c-1.933,0-3.5-1.567-3.5-3.5l0,0c0-1.933,1.567-3.5,3.5-3.5h71    c1.933,0,3.5,1.567,3.5,3.5l0,0C218.333,149.292,216.766,150.859,214.833,150.859z"/></g><g><path class="st9" d="M214.833,170.859h-71c-1.933,0-3.5-1.567-3.5-3.5l0,0c0-1.933,1.567-3.5,3.5-3.5h71    c1.933,0,3.5,1.567,3.5,3.5l0,0C218.333,169.292,216.766,170.859,214.833,170.859z"/></g><g><path class="st9" d="M214.833,190.859h-71c-1.933,0-3.5-1.567-3.5-3.5l0,0c0-1.933,1.567-3.5,3.5-3.5h71    c1.933,0,3.5,1.567,3.5,3.5l0,0C218.333,189.292,216.766,190.859,214.833,190.859z"/></g><g><path class="st9" d="M214.833,210.859h-71c-1.933,0-3.5-1.567-3.5-3.5l0,0c0-1.933,1.567-3.5,3.5-3.5h71    c1.933,0,3.5,1.567,3.5,3.5l0,0C218.333,209.292,216.766,210.859,214.833,210.859z"/></g><g><path class="st9" d="M113.5,110.859h-71c-1.933,0-3.5-1.567-3.5-3.5v0c0-1.933,1.567-3.5,3.5-3.5h71c1.933,0,3.5,1.567,3.5,3.5v0    C117,109.292,115.433,110.859,113.5,110.859z"/></g><g><path class="st9" d="M113.5,130.859h-71c-1.933,0-3.5-1.567-3.5-3.5v0c0-1.933,1.567-3.5,3.5-3.5h71c1.933,0,3.5,1.567,3.5,3.5v0    C117,129.292,115.433,130.859,113.5,130.859z"/></g><g><path class="st9" d="M113.5,150.859h-71c-1.933,0-3.5-1.567-3.5-3.5l0,0c0-1.933,1.567-3.5,3.5-3.5h71c1.933,0,3.5,1.567,3.5,3.5    l0,0C117,149.292,115.433,150.859,113.5,150.859z"/></g><g><path class="st9" d="M113.5,170.859h-71c-1.933,0-3.5-1.567-3.5-3.5l0,0c0-1.933,1.567-3.5,3.5-3.5h71c1.933,0,3.5,1.567,3.5,3.5    l0,0C117,169.292,115.433,170.859,113.5,170.859z"/></g><g><path class="st9" d="M115,210.859H41c-1.105,0-2-0.895-2-2v-23c0-1.105,0.895-2,2-2h74c1.105,0,2,0.895,2,2v23    C117,209.964,116.105,210.859,115,210.859z"/></g><g><path class="st5" d="M128,241.75H28c-1.104,0-2-0.896-2-2V81.5c0-1.104,0.896-2,2-2h91.783c5.634,0,10.217,4.583,10.217,10.217    V239.75C130,240.854,129.104,241.75,128,241.75z M30,237.75h96V89.717c0-3.428-2.789-6.217-6.217-6.217H30V237.75z"/></g><g><path class="st5" d="M228,241.75H128c-1.104,0-2-0.896-2-2V89.717c0-5.634,4.583-10.217,10.217-10.217H228c1.104,0,2,0.896,2,2    v158.25C230,240.854,229.104,241.75,228,241.75z M130,237.75h96V83.5h-89.783c-3.428,0-6.217,2.789-6.217,6.217V237.75z"/></g><g><path class="st1" d="M119.892,231.5H28c-7.667,0.833-8.108,8.25-8.108,8.25H28h100C128,239.75,127.559,232.333,119.892,231.5z"/></g><g><path class="st1" d="M228,231.5h-91.892c-7.667,0.833-8.108,8.25-8.108,8.25h100h8.108C236.108,239.75,235.667,232.333,228,231.5z    "/></g><g><path class="st5" d="M128,241.75H19.892c-0.551,0-1.078-0.228-1.456-0.629c-0.378-0.4-0.573-0.939-0.54-1.49    c0.188-3.148,2.495-9.315,9.889-10.119c0.071-0.008,0.144-0.012,0.216-0.012h91.892c0.072,0,0.145,0.004,0.216,0.012    c7.394,0.804,9.701,6.971,9.889,10.119c0.033,0.551-0.162,1.09-0.54,1.49C129.078,241.522,128.551,241.75,128,241.75z     M22.399,237.75h103.094c-0.669-1.695-2.204-3.831-5.715-4.25H28.113C24.604,233.919,23.069,236.053,22.399,237.75z"/></g><g><path class="st5" d="M236.108,241.75H128c-0.551,0-1.078-0.228-1.456-0.629c-0.378-0.4-0.573-0.939-0.54-1.49    c0.188-3.148,2.495-9.315,9.889-10.119c0.071-0.008,0.144-0.012,0.216-0.012H228c0.072,0,0.145,0.004,0.216,0.012    c7.394,0.804,9.701,6.971,9.889,10.119c0.033,0.551-0.162,1.09-0.54,1.49C237.187,241.522,236.659,241.75,236.108,241.75z     M130.508,237.75h103.094c-0.669-1.695-2.204-3.831-5.715-4.25h-91.665C132.713,233.919,131.178,236.053,130.508,237.75z"/></g><g><path class="st6" d="M129.616,8h-3.232C97.152,8,73.456,31.697,73.456,60.928l0,0c0,24.902,17.202,45.775,40.367,51.416    l10.963,20.721c1.365,2.581,5.063,2.581,6.428,0l10.963-20.721c23.166-5.64,40.368-26.514,40.368-51.416l0,0    C182.544,31.697,158.847,8,129.616,8z"/></g><g><path class="st10" d="M142.73,66.91c3.308-3.613,5.327-8.426,5.327-13.71c0-11.218-9.094-20.312-20.312-20.312    c-11.218,0-20.312,9.094-20.312,20.312c0,5.285,2.02,10.097,5.327,13.71h-0.053c3.359,3.977,5.389,9.112,5.389,14.726    c0,0.341-0.011,0.679-0.026,1.016h2.057h6.601h2.031h6.094h2.565c-0.015-0.337-0.026-0.675-0.026-1.016    c0-5.614,2.03-10.749,5.389-14.726H142.73z"/></g><g><path class="st4" d="M133.84,63.356c0-3.365-2.728-6.094-6.094-6.094c-3.365,0-6.094,2.728-6.094,6.094    c0,2.836,1.947,5.198,4.57,5.878v14.808h3.047V69.234C131.893,68.554,133.84,66.192,133.84,63.356z M127.746,66.92    c-1.965,0-3.564-1.599-3.564-3.564c0-1.965,1.599-3.564,3.564-3.564c1.965,0,3.564,1.599,3.564,3.564    C131.31,65.321,129.711,66.92,127.746,66.92z"/></g><g><path class="st11" d="M143.036,34.78l0.084,0.084c1.167,1.167,3.058,1.167,4.225,0l6.547-6.547c1.167-1.167,1.167-3.058,0-4.225    l-0.084-0.084c-1.167-1.167-3.058-1.167-4.225,0l-6.547,6.547C141.869,31.722,141.869,33.613,143.036,34.78z"/></g><g><path class="st11" d="M128.055,28.846h-0.11c-1.652,0-2.992-1.339-2.992-2.992v-9.291c0-1.652,1.339-2.992,2.992-2.992h0.11    c1.652,0,2.992,1.339,2.992,2.992v9.291C131.047,27.507,129.707,28.846,128.055,28.846z"/></g><g><path class="st11" d="M113.218,34.78l-0.084,0.084c-1.167,1.167-3.058,1.167-4.225,0l-6.547-6.547    c-1.167-1.167-1.167-3.058,0-4.225l0.084-0.084c1.167-1.167,3.058-1.167,4.225,0l6.547,6.547    C114.385,31.722,114.385,33.613,113.218,34.78z"/></g><g><path class="st12" d="M149.835,43.611v-0.118c0-1.65,1.338-2.988,2.988-2.988h9.259c1.65,0,2.988,1.338,2.988,2.988v0.118    c0,1.65-1.338,2.988-2.988,2.988h-9.259C151.173,46.599,149.835,45.261,149.835,43.611z"/></g><g><path class="st11" d="M90.931,43.611v-0.118c0-1.65,1.338-2.988,2.988-2.988h9.259c1.65,0,2.988,1.338,2.988,2.988v0.118    c0,1.65-1.338,2.988-2.988,2.988h-9.259C92.269,46.599,90.931,45.261,90.931,43.611z"/></g><g><path class="st2" d="M137.805,88.746h-20.118c-0.614,0-1.113-0.498-1.113-1.113v-3.868c0-0.614,0.498-1.113,1.113-1.113h20.118    c0.614,0,1.113,0.498,1.113,1.113v3.868C138.918,88.247,138.419,88.746,137.805,88.746z"/></g><g><path class="st2" d="M136.143,94.839h-16.286c-0.971,0-1.759-0.788-1.759-1.759v-4.334h19.804v4.334    C137.902,94.052,137.114,94.839,136.143,94.839z"/></g><g><path class="st2" d="M129.777,102.964h-4.062c-3.365,0-6.094-2.728-6.094-6.094v-2.031h16.249v2.031    C135.871,100.236,133.143,102.964,129.777,102.964z"/></g><g><path class="st5" d="M128,137c-2.094,0-4.003-1.149-4.981-3l-10.547-19.935c-24.197-6.308-41.016-28.029-41.016-53.138    C71.456,30.641,96.097,6,126.384,6h3.232c30.287,0,54.928,24.641,54.928,54.928c0,25.108-16.818,46.83-41.016,53.138L132.981,134    C132.003,135.851,130.094,137,128,137z M126.384,10c-28.082,0-50.928,22.846-50.928,50.928c0,23.561,15.972,43.904,38.841,49.473    c0.556,0.136,1.026,0.502,1.294,1.008l10.963,20.721c0.416,0.786,1.15,0.871,1.446,0.871s1.03-0.085,1.446-0.871l10.963-20.721    c0.268-0.506,0.738-0.872,1.294-1.008c22.869-5.568,38.841-25.912,38.841-49.473c0-28.082-22.846-50.928-50.928-50.928H126.384z"/></g></g></svg>