<?xml version="1.0" ?><svg id="Layer_1" style="enable-background:new 0 0 256 256;" version="1.1" viewBox="0 0 256 256" xml:space="preserve" xmlns="http://www.w3.org/2000/svg" xmlns:xlink="http://www.w3.org/1999/xlink"><style type="text/css">
	.st0{fill:#6BDDDD;}
	.st1{fill:#F9CFCF;}
	.st2{fill:#4671C6;}
	.st3{fill:#3762CC;}
	.st4{fill:#E0EBFC;}
	.st5{fill:#A4C9FF;}
	.st6{fill:#B9BEFC;}
	.st7{fill:#FFEA94;}
	.st8{fill:#F9A7A7;}
	.st9{fill:#FFEA92;}
	.st10{fill:#FFE164;}
	.st11{fill:#FFDC85;}
	.st12{fill:#EAA97D;}
	.st13{fill:#FFA730;}
</style><g><g><path class="st4" d="M200.458,248H55.542c-4.166,0-7.542-3.377-7.542-7.542V15.542C48,11.377,51.377,8,55.542,8h144.915    c4.166,0,7.542,3.377,7.542,7.542v224.915C208,244.623,204.623,248,200.458,248z"/></g><g><path class="st5" d="M48,202.333v14V240c0,4.418,3.184,8,7.111,8h145.778c3.927,0,7.111-3.582,7.111-8v-23.667v-14H48z"/></g><g><path class="st2" d="M48,16v27.667h160V16c0-4.418-3.184-8-7.111-8H55.111C51.184,8,48,11.582,48,16z"/></g><g><path class="st1" d="M191.805,25.833l2.55-2.6c1.644-1.677,1.783-4.554,0.308-6.424c-1.476-1.869-4-2.03-5.646-0.351l-3.202,3.266    l-3.202-3.266c-1.646-1.677-4.17-1.52-5.646,0.351c-1.474,1.87-1.335,4.747,0.308,6.424l2.55,2.6l-2.55,2.601    c-1.644,1.677-1.783,4.554-0.308,6.424c0.791,1.002,1.882,1.513,2.979,1.513c0.949,0,1.904-0.383,2.667-1.162l3.202-3.266    l3.202,3.266c0.763,0.778,1.716,1.162,2.667,1.162c1.097,0,2.189-0.51,2.979-1.513c1.474-1.87,1.335-4.747-0.308-6.424    L191.805,25.833z"/></g><g><path class="st1" d="M160.681,31.064h-8.471c-1.372,0-2.484-1.112-2.484-2.484V18.259c0-1.372,1.112-2.484,2.484-2.484h8.471    c1.372,0,2.484,1.112,2.484,2.484v10.322C163.165,29.952,162.053,31.064,160.681,31.064z"/></g><g><path class="st1" d="M126.485,33.38h-12.702c-2.598,0-4.704-2.396-4.704-5.352s2.106-5.352,4.704-5.352h12.702    c2.598,0,4.704,2.396,4.704,5.352S129.083,33.38,126.485,33.38z"/></g><g><path class="st4" d="M153.962,35.892h-8.471c-1.372,0-2.484-1.112-2.484-2.484V23.087c0-1.372,1.112-2.484,2.484-2.484h8.471    c1.372,0,2.484,1.112,2.484,2.484v10.322C156.445,34.78,155.333,35.892,153.962,35.892z"/></g><g><path class="st4" d="M190.285,233.667h-126c-1.105,0-2-0.895-2-2v-14c0-1.105,0.895-2,2-2h126c1.105,0,2,0.895,2,2v14    C192.285,232.771,191.39,233.667,190.285,233.667z"/></g><g><path class="st0" d="M165.423,173.3l-3.932-14.327c-0.004-0.015-0.013-0.026-0.017-0.041v-25.265c0-2.057-1.668-3.725-3.725-3.725    H83.246c-2.057,0-3.725,1.668-3.725,3.725v34.457c0,2.057,1.668,3.725,3.725,3.725h66.259l13.629,3.74    C164.526,175.971,165.805,174.692,165.423,173.3z"/></g><g><path class="st3" d="M148.033,195.27c-0.078,0-0.157-0.005-0.236-0.017c-0.544-0.075-1.018-0.408-1.275-0.893l-3.847-7.268    c-0.442-0.834-0.124-1.869,0.711-2.311c0.833-0.444,1.869-0.124,2.311,0.711l2.74,5.175l8.194-8.551    c0.653-0.681,1.736-0.704,2.418-0.052c0.682,0.654,0.705,1.736,0.051,2.418l-9.833,10.26    C148.943,195.082,148.496,195.27,148.033,195.27z"/></g><g><path class="st5" d="M165.889,182.065c-0.682-0.652-1.764-0.63-2.418,0.052l-8.194,8.551l-0.749-1.414l-2.493,2.601l1.326,2.505    c0.257,0.485,0.731,0.818,1.275,0.893c0.079,0.012,0.158,0.017,0.236,0.017c0.463,0,0.91-0.188,1.234-0.527l9.833-10.26    C166.593,183.801,166.57,182.719,165.889,182.065z"/></g><g><path class="st9" d="M152.564,160.9H90.067c-1.74,0-3.15-1.41-3.15-3.15s1.41-3.15,3.15-3.15h62.497c1.74,0,3.15,1.41,3.15,3.15    S154.304,160.9,152.564,160.9z"/></g><g><path class="st2" d="M195.938,195.759h-23.191v-8.97c0-6.404,5.191-11.595,11.595-11.595h0c6.404,0,11.595,5.191,11.595,11.595    V195.759z"/></g><g><path class="st9" d="M152.564,147.326H90.067c-1.74,0-3.15-1.41-3.15-3.15c0-1.74,1.41-3.15,3.15-3.15h62.497    c1.74,0,3.15,1.41,3.15,3.15C155.714,145.916,154.304,147.326,152.564,147.326z"/></g><g><path class="st0" d="M90.577,94.673l3.932-14.327c0.004-0.015,0.013-0.026,0.017-0.041V55.04c0-2.057,1.668-3.725,3.725-3.725    h74.503c2.057,0,3.725,1.668,3.725,3.725v34.457c0,2.057-1.668,3.725-3.725,3.725h-66.259l-13.629,3.74    C91.474,97.344,90.195,96.066,90.577,94.673z"/></g><g><path class="st3" d="M95.472,116.237c-0.078,0-0.157-0.005-0.236-0.017c-0.544-0.075-1.018-0.408-1.275-0.893l-3.847-7.268    c-0.442-0.834-0.124-1.869,0.711-2.311c0.833-0.444,1.869-0.124,2.311,0.711l2.74,5.175l8.194-8.551    c0.653-0.681,1.736-0.704,2.418-0.052c0.682,0.654,0.705,1.736,0.051,2.418l-9.832,10.26    C96.382,116.049,95.935,116.237,95.472,116.237z"/></g><g><path class="st5" d="M113.328,103.032c-0.682-0.652-1.764-0.63-2.418,0.052l-8.194,8.551l-0.749-1.414l-2.493,2.601l1.326,2.505    c0.257,0.485,0.731,0.818,1.275,0.893c0.079,0.012,0.158,0.017,0.236,0.017c0.463,0,0.91-0.188,1.234-0.527l9.833-10.26    C114.032,104.768,114.009,103.686,113.328,103.032z"/></g><g><path class="st9" d="M165.933,68.7h-62.497c-1.74,0-3.15-1.41-3.15-3.15s1.41-3.15,3.15-3.15h62.497c1.74,0,3.15,1.41,3.15,3.15    S167.672,68.7,165.933,68.7z"/></g><g><path class="st9" d="M165.933,82.274h-62.497c-1.74,0-3.15-1.41-3.15-3.15s1.41-3.15,3.15-3.15h62.497c1.74,0,3.15,1.41,3.15,3.15    S167.672,82.274,165.933,82.274z"/></g><g><path class="st8" d="M60.062,116.237h23.191v-8.97c0-6.404-5.191-11.595-11.595-11.595h0c-6.404,0-11.595,5.191-11.595,11.595    V116.237z"/></g><g><circle class="st1" cx="184.342" cy="164.986" r="12.187"/></g><g><circle class="st1" cx="71.658" cy="85.465" r="12.187"/></g><g><path class="st3" d="M200.458,250H55.542c-5.262,0-9.542-4.28-9.542-9.542V15.542C46,10.28,50.281,6,55.542,6h144.915    c5.262,0,9.542,4.28,9.542,9.542v224.916C210,245.72,205.719,250,200.458,250z M55.542,10C52.486,10,50,12.486,50,15.542v224.916    c0,3.056,2.486,5.542,5.542,5.542h144.915c3.056,0,5.542-2.486,5.542-5.542V15.542c0-3.056-2.486-5.542-5.542-5.542H55.542z"/></g><g><path class="st8" d="M64.285,233.667h22.589v-18H64.285c-1.105,0-2,0.896-2,2v14C62.285,232.771,63.181,233.667,64.285,233.667z"/></g></g></svg>