<?xml version="1.0" encoding="UTF-8" standalone="no"?>
<!DOCTYPE svg PUBLIC "-//W3C//DTD SVG 1.1//EN" "http://www.w3.org/Graphics/SVG/1.1/DTD/svg11.dtd">
<svg width="100%" height="100%" viewBox="0 0 2048 2048" version="1.1" xmlns="http://www.w3.org/2000/svg" xmlns:xlink="http://www.w3.org/1999/xlink" xml:space="preserve" xmlns:serif="http://www.serif.com/" style="fill-rule:evenodd;clip-rule:evenodd;stroke-linejoin:round;stroke-miterlimit:2;">
    <g id="Layer_x0020_1">
        <path d="M351,256L1440,256L1440,1792L351,1792C299,1792 256,1749 256,1697L256,351C256,299 299,256 351,256Z" style="fill:rgb(224,224,224);"/>
        <g id="_360334240" transform="matrix(1,0,0,1,-198.538,-197.011)">
            <path d="M848,1000C936,1000 1016,1036 1074,1094C1132,1152 1168,1232 1168,1320L1168,1377C1168,1397 1160,1415 1146,1429C1133,1442 1114,1451 1094,1451L601,1451C581,1451 563,1443 549,1429C536,1416 527,1397 527,1377L527,1320C527,1232 563,1152 621,1094C679,1036 759,1000 847,1000L848,1000Z" style="fill:rgb(66,66,66);fill-rule:nonzero;"/>
            <rect x="765" y="933" width="166" height="139" style="fill:rgb(230,181,117);"/>
            <path d="M848,598C895,598 939,607 971,632C1004,658 1024,699 1024,762C1024,823 1005,879 974,919C942,961 897,987 848,987C798,987 754,961 722,919C691,879 672,823 672,762C672,699 692,657 725,632C757,607 801,598 848,598Z" style="fill:rgb(255,201,130);fill-rule:nonzero;"/>
            <path d="M848,598C895,598 939,607 971,632C1003,657 1023,697 1024,758C996,778 963,790 928,790C877,790 832,766 799,729C769,756 730,773 688,773C683,773 677,773 672,772L672,763C672,700 692,658 725,633C757,608 801,599 848,599L848,598Z" style="fill:rgb(33,33,33);fill-rule:nonzero;"/>
            <path d="M829,1058L848,1072L867,1058L867,1450L829,1450L829,1058Z" style="fill:rgb(60,60,60);"/>
            <path d="M765,970L848,1072L778,1182L739,1024L765,970ZM931,970L848,1072L918,1182L957,1024L931,970Z" style="fill:rgb(33,33,33);"/>
        </g>
        <g id="_3603342401" serif:id="_360334240" transform="matrix(1,0,0,1,33.5989,1.52727)">
            <path d="M848,1000C936,1000 1016,1036 1074,1094C1132,1152 1168,1232 1168,1320L1168,1377C1168,1397 1160,1415 1146,1429C1133,1442 1114,1451 1094,1451L601,1451C581,1451 563,1443 549,1429C536,1416 527,1397 527,1377L527,1320C527,1232 563,1152 621,1094C679,1036 759,1000 847,1000L848,1000Z" style="fill:rgb(66,66,66);fill-rule:nonzero;"/>
            <rect x="765" y="933" width="166" height="139" style="fill:rgb(230,181,117);"/>
            <path d="M848,598C895,598 939,607 971,632C1004,658 1024,699 1024,762C1024,823 1005,879 974,919C942,961 897,987 848,987C798,987 754,961 722,919C691,879 672,823 672,762C672,699 692,657 725,632C757,607 801,598 848,598Z" style="fill:rgb(255,201,130);fill-rule:nonzero;"/>
            <path d="M848,598C895,598 939,607 971,632C1003,657 1023,697 1024,758C996,778 963,790 928,790C877,790 832,766 799,729C769,756 730,773 688,773C683,773 677,773 672,772L672,763C672,700 692,658 725,633C757,608 801,599 848,599L848,598Z" style="fill:rgb(33,33,33);fill-rule:nonzero;"/>
            <path d="M829,1058L848,1072L867,1058L867,1450L829,1450L829,1058Z" style="fill:rgb(60,60,60);"/>
            <path d="M765,970L848,1072L778,1182L739,1024L765,970ZM931,970L848,1072L918,1182L957,1024L931,970Z" style="fill:rgb(33,33,33);"/>
        </g>
        <g id="_3603342402" serif:id="_360334240" transform="matrix(1,0,0,1,229.083,235.192)">
            <path d="M848,1000C936,1000 1016,1036 1074,1094C1132,1152 1168,1232 1168,1320L1168,1377C1168,1397 1160,1415 1146,1429C1133,1442 1114,1451 1094,1451L601,1451C581,1451 563,1443 549,1429C536,1416 527,1397 527,1377L527,1320C527,1232 563,1152 621,1094C679,1036 759,1000 847,1000L848,1000Z" style="fill:rgb(66,66,66);fill-rule:nonzero;"/>
            <rect x="765" y="933" width="166" height="139" style="fill:rgb(230,181,117);"/>
            <path d="M848,598C895,598 939,607 971,632C1004,658 1024,699 1024,762C1024,823 1005,879 974,919C942,961 897,987 848,987C798,987 754,961 722,919C691,879 672,823 672,762C672,699 692,657 725,632C757,607 801,598 848,598Z" style="fill:rgb(255,201,130);fill-rule:nonzero;"/>
            <path d="M848,598C895,598 939,607 971,632C1003,657 1023,697 1024,758C996,778 963,790 928,790C877,790 832,766 799,729C769,756 730,773 688,773C683,773 677,773 672,772L672,763C672,700 692,658 725,633C757,608 801,599 848,599L848,598Z" style="fill:rgb(33,33,33);fill-rule:nonzero;"/>
            <path d="M829,1058L848,1072L867,1058L867,1450L829,1450L829,1058Z" style="fill:rgb(60,60,60);"/>
            <path d="M765,970L848,1072L778,1182L739,1024L765,970ZM931,970L848,1072L918,1182L957,1024L931,970Z" style="fill:rgb(33,33,33);"/>
        </g>
        <g id="_360343216">
            <rect x="1440" y="256" width="352" height="307" style="fill:rgb(245,127,23);"/>
            <rect x="1440" y="1178" width="352" height="307" style="fill:rgb(0,145,234);"/>
            <rect x="1440" y="870" width="352" height="307" style="fill:rgb(85,139,47);"/>
            <rect x="1440" y="563" width="352" height="307" style="fill:rgb(192,202,51);"/>
            <rect x="1440" y="1485" width="352" height="307" style="fill:rgb(0,176,255);"/>
            <rect x="1440" y="256" width="48" height="307" style="fill:rgb(182,110,31);"/>
            <rect x="1440" y="1178" width="48" height="307" style="fill:rgb(3,122,185);"/>
            <rect x="1440" y="870" width="48" height="308" style="fill:rgb(65,118,49);"/>
            <rect x="1440" y="563" width="48" height="307" style="fill:rgb(144,164,51);"/>
            <rect x="1440" y="1485" width="48" height="307" style="fill:rgb(3,145,200);"/>
            <path d="M1668,458L1645,458L1636,434L1594,434L1585,458L1563,458L1604,353L1626,353L1668,458ZM1629,417L1615,378L1601,417L1630,417L1629,417ZM1572,660L1614,660C1622,660 1628,660 1633,661C1637,662 1641,663 1644,665C1647,667 1650,670 1652,674C1654,678 1655,682 1655,686C1655,691 1654,695 1651,699C1648,703 1645,706 1640,708C1646,710 1651,713 1655,717C1658,721 1660,727 1660,733C1660,738 1659,742 1657,747C1655,751 1652,755 1648,758C1644,761 1639,762 1634,763C1630,763 1622,764 1609,764L1573,764L1573,659L1572,660ZM1593,677L1593,701L1622,701C1626,701 1628,699 1631,697C1633,695 1634,692 1634,689C1634,686 1633,683 1631,681C1629,679 1627,678 1623,677L1593,677ZM1593,719L1593,747L1613,747C1621,747 1625,747 1627,746C1630,745 1633,744 1635,742C1637,740 1638,737 1638,733C1638,730 1637,727 1636,725C1634,723 1632,721 1629,720C1626,719 1620,719 1610,719L1593,719ZM1641,1034L1661,1040C1658,1051 1653,1060 1645,1065C1638,1071 1628,1073 1617,1073C1603,1073 1592,1068 1583,1059C1574,1050 1570,1037 1570,1020C1570,1003 1575,989 1583,979C1592,969 1604,965 1618,965C1631,965 1641,969 1649,976C1654,980 1657,987 1660,995L1639,1000C1638,995 1635,990 1631,987C1627,984 1622,982 1617,982C1609,982 1603,985 1598,990C1593,996 1591,1005 1591,1017C1591,1030 1593,1040 1598,1045C1603,1051 1609,1053 1617,1053C1623,1053 1627,1051 1631,1048C1635,1044 1638,1039 1640,1031L1641,1034ZM1572,1275L1611,1275C1620,1275 1626,1276 1631,1277C1637,1279 1642,1282 1647,1287C1651,1292 1655,1297 1657,1304C1659,1311 1660,1319 1660,1329C1660,1338 1659,1345 1657,1351C1654,1359 1651,1365 1646,1369C1642,1373 1637,1375 1631,1377C1626,1378 1620,1379 1612,1379L1572,1379L1572,1274L1572,1275ZM1593,1293L1593,1362L1609,1362C1615,1362 1619,1362 1622,1361C1625,1360 1628,1359 1631,1357C1633,1355 1635,1352 1637,1347C1638,1342 1639,1336 1639,1328C1639,1320 1638,1314 1637,1309C1636,1305 1634,1301 1631,1299C1628,1297 1625,1295 1621,1294C1618,1293 1612,1293 1604,1293L1593,1293ZM1576,1686L1576,1582L1654,1582L1654,1600L1597,1600L1597,1623L1650,1623L1650,1640L1597,1640L1597,1669L1656,1669L1656,1686L1576,1686Z" style="fill:rgb(0,77,64);fill-rule:nonzero;"/>
        </g>
        <rect x="0" y="0" width="2048" height="2048" style="fill:none;"/>
    </g>
</svg>
