<svg xmlns="http://www.w3.org/2000/svg" id="document" width="64" height="64" version="1.1" viewBox="0 0 64 64">
  <g id="layer1" transform="translate(0 -988.362)">
    <g id="g12740" transform="translate(715.02 1073.907)">
      <rect id="rect12738" width="2.342" height="1.061" x="-694.467" y="-63.563" rx=".048" ry=".069" style="isolation:auto;mix-blend-mode:normal;solid-color:#000;solid-opacity:1" color="#000" clip-rule="nonzero" display="inline" overflow="visible" visibility="visible" opacity="1" color-interpolation="sRGB" color-interpolation-filters="linearRGB" fill="#bcd5e2" fill-opacity="1" fill-rule="nonzero" stroke="none" stroke-width="1" stroke-linecap="round" stroke-linejoin="round" stroke-miterlimit="4" stroke-dasharray="none" stroke-dashoffset="0" stroke-opacity="1" color-rendering="auto" image-rendering="auto" shape-rendering="auto" text-rendering="auto" enable-background="accumulate"></rect>
      <path id="path4216-54-9" d="m -710.04372,-45.0057 0,5.0629" fill="none" fill-rule="evenodd" stroke="#4b31aa" stroke-width="1px" stroke-linecap="round" stroke-linejoin="miter" stroke-opacity="1"></path>
      <path id="path4218-8-6" d="m -710.04372,-38.4458 0,1.7455" fill="none" fill-rule="evenodd" stroke="#4b31aa" stroke-width=".99999994px" stroke-linecap="round" stroke-linejoin="miter" stroke-opacity="1"></path>
      <path id="path4220-28-5" d="m -664.00491,-38.2142 6.15658,10e-5" fill="none" fill-rule="evenodd" stroke="#4b31aa" stroke-width=".99999994px" stroke-linecap="round" stroke-linejoin="miter" stroke-opacity="1"></path>
      <path id="path4222-9-4" d="m -656.24822,-38.2142 2.56299,10e-5" fill="none" fill-rule="evenodd" stroke="#4b31aa" stroke-width=".99999994px" stroke-linecap="round" stroke-linejoin="miter" stroke-opacity="1"></path>
      <path id="path4224-3-4" d="m -654.11874,-40.2141 -9.04686,-10e-5" fill="none" fill-rule="evenodd" stroke="#4b31aa" stroke-width=".99999994px" stroke-linecap="round" stroke-linejoin="miter" stroke-opacity="1"></path>
      <path id="path4226-6-9" d="m -664.79448,-40.2141 -3.1696,-10e-5" fill="none" fill-rule="evenodd" stroke="#4b31aa" stroke-width=".99999994px" stroke-linecap="round" stroke-linejoin="miter" stroke-opacity="1"></path>
      <circle id="circle4354-8-9" cx="-706.009" cy="-30.573" r="1.471" opacity="1" fill="#f9d015" fill-opacity="1" stroke="#4b31aa" stroke-width="1" stroke-linecap="round" stroke-linejoin="round" stroke-miterlimit="4" stroke-dasharray="none" stroke-dashoffset="0" stroke-opacity="1"></circle>
      <path id="path4358-2-60" d="m -663.38331,-29.4352 1.81242,-1.8121" fill="none" fill-rule="evenodd" stroke="#4b31aa" stroke-width=".99999994px" stroke-linecap="round" stroke-linejoin="miter" stroke-opacity="1"></path>
      <path id="path4360-1-5" d="m -667.62596,-25.1926 1.81243,-1.8121" fill="none" fill-rule="evenodd" stroke="#4b31aa" stroke-width=".99999994px" stroke-linecap="round" stroke-linejoin="miter" stroke-opacity="1"></path>
      <path id="path4362-0-0" d="m -665.8137,-29.4351 -1.81204,-1.8123" fill="none" fill-rule="evenodd" stroke="#4b31aa" stroke-width=".99999994px" stroke-linecap="round" stroke-linejoin="miter" stroke-opacity="1"></path>
      <path id="path4364-5-2" d="m -661.5711,-25.1925 -1.81204,-1.8123" fill="none" fill-rule="evenodd" stroke="#4b31aa" stroke-width=".99999994px" stroke-linecap="round" stroke-linejoin="miter" stroke-opacity="1"></path>
      <path id="path4380-1-4" d="m -706.53176,-58.0023 1.81242,-1.8121" fill="none" fill-rule="evenodd" stroke="#4b31aa" stroke-width=".99999994px" stroke-linecap="round" stroke-linejoin="miter" stroke-opacity="1"></path>
      <path id="path4382-0-3" d="m -710.77441,-53.7597 1.81243,-1.8121" fill="none" fill-rule="evenodd" stroke="#4b31aa" stroke-width=".99999994px" stroke-linecap="round" stroke-linejoin="miter" stroke-opacity="1"></path>
      <path id="path4384-8-5" d="m -708.96215,-58.0022 -1.81204,-1.8123" fill="none" fill-rule="evenodd" stroke="#4b31aa" stroke-width=".99999994px" stroke-linecap="round" stroke-linejoin="miter" stroke-opacity="1"></path>
      <path id="path4386-5-1" d="m -704.71955,-53.7596 -1.81204,-1.8123" fill="none" fill-rule="evenodd" stroke="#4b31aa" stroke-width=".99999994px" stroke-linecap="round" stroke-linejoin="miter" stroke-opacity="1"></path>
      <path id="path4377-6-4" d="m -656.29793,-59.6396 0,5.0629" fill="none" fill-rule="evenodd" stroke="#4b31aa" stroke-width="1px" stroke-linecap="round" stroke-linejoin="miter" stroke-opacity="1"></path>
      <path id="path4379-4-3" d="m -656.29793,-53.0797 0,1.7455" fill="none" fill-rule="evenodd" stroke="#4b31aa" stroke-width=".99999994px" stroke-linecap="round" stroke-linejoin="miter" stroke-opacity="1"></path>
      <path id="path4167-9-2-4" d="m -670.95928,-46.904 0,18.4691 c 0,1.6092 -1.17655,2.9047 -2.63801,2.9047 l -24.37286,0 c -1.46146,0 -2.63801,-1.2955 -2.63801,-2.9047 l 0,-35.138938 1.96664,0.0015" opacity="1" fill="#bcd5e2" fill-opacity="1" stroke="#4b31aa" stroke-width="1" stroke-linecap="round" stroke-linejoin="round" stroke-miterlimit="4" stroke-dasharray="none" stroke-dashoffset="0" stroke-opacity="1"></path>
      <path id="path12694" d="m -679.35547,-1040.3203 -20.26367,25.7773 c 0.45216,0.401 1.02005,0.6504 1.64844,0.6504 l 24.37304,0 c 1.46146,0 2.63868,-1.2951 2.63868,-2.9043 l 0,-18.4687 -8.39649,-5.0547 z" transform="translate(0 988.362)" opacity="1" fill="#79a1e8" fill-opacity="1" stroke="none" stroke-width="1" stroke-linecap="round" stroke-linejoin="round" stroke-miterlimit="4" stroke-dasharray="none" stroke-dashoffset="0" stroke-opacity="1"></path>
      <path id="path12707" d="m -670.95928,-46.904 0,18.4691 c 0,1.6092 -1.17655,2.9047 -2.63801,2.9047 l -24.37286,0 c -1.46146,0 -2.63801,-1.2955 -2.63801,-2.9047 l 0,-35.138938 1.96664,0.0015" opacity="1" fill="none" fill-opacity="1" stroke="#4b31aa" stroke-width="1" stroke-linecap="round" stroke-linejoin="round" stroke-miterlimit="4" stroke-dasharray="none" stroke-dashoffset="0" stroke-opacity="1"></path>
      <path id="path4170-0-5-6" d="m -694.54968,-62.4767 2.14088,0 0.2145,0.02128 m 16.84285,0.899524 1.29867,14.585696 0,11.2893 -7.79551,6.874 -14.54495,0 c -0.62127,0 -1.12142,-0.5004 -1.12142,-1.122 l 0,-31.4258 c 0,-0.2911 0.10969,-0.5556 0.29015,-0.7546" opacity="1" fill="#fff" fill-opacity="1" stroke="#4b31aa" stroke-width="1" stroke-linecap="round" stroke-linejoin="round" stroke-miterlimit="4" stroke-dasharray="none" stroke-dashoffset="0" stroke-opacity="1"></path>
      <path id="rect4148-8-9" d="m -692.03373,-63.9799 0,2.4369 11.9486,0 c -0.1999,-2.127396 0.23106,-4.751826 -1.78653,-5.4471 l -0.90621,0 c 0.0454,-0.1914 0.069,-0.3873 0.0703,-0.584 -3e-5,-1.44 -1.1674,-2.6074 -2.60743,-2.6074 l 3e-5,0 c -1.44002,0 -2.60739,1.1674 -2.60742,2.6074 10e-4,0.1967 0.0249,0.3926 0.0703,0.584 l -2.75391,0 c -0.18915,0 -0.36947,0.036 -0.53436,0.1025" opacity="1" fill="#fff" fill-opacity="1" stroke="#4b31aa" stroke-width="1" stroke-linecap="round" stroke-linejoin="round" stroke-miterlimit="4" stroke-dasharray="none" stroke-dashoffset="0" stroke-opacity="1"></path>
      <circle id="path4154-62-4" cx="-685.315" cy="-67.53" r=".884" opacity="1" fill="#fff" fill-opacity="1" stroke="#4b31aa" stroke-width="1" stroke-linecap="round" stroke-linejoin="round" stroke-miterlimit="4" stroke-dasharray="none" stroke-dashoffset="0" stroke-opacity="1"></circle>
      <rect id="rect4174-4-2" width="6.318" height="6.318" x="-694.149" y="-58.409" rx=".667" ry=".667" opacity="1" fill="#bad3dd" fill-opacity="1" stroke="#4b31aa" stroke-width="1" stroke-linecap="round" stroke-linejoin="round" stroke-miterlimit="4" stroke-dasharray="none" stroke-dashoffset="0" stroke-opacity="1"></rect>
      <path id="path12696" d="m -674.99219,-1045.873 -22.24609,28.3007 c 0.20538,0.2421 0.50205,0.4024 0.8457,0.4024 l 14.54492,0 7.79493,-6.8731 0,-11.289 -0.93946,-10.541 z" transform="translate(0 988.362)" opacity="1" fill="#cfddf7" fill-opacity="1" stroke="none" stroke-width="1" stroke-linecap="round" stroke-linejoin="round" stroke-miterlimit="4" stroke-dasharray="none" stroke-dashoffset="0" stroke-opacity="1"></path>
      <path id="path12718" d="m -694.54968,-62.4767 2.14088,0 0.2145,0.02128 m 16.84285,0.899524 1.29867,14.585696 0,11.2893 -7.79551,6.874 -14.54495,0 c -0.62127,0 -1.12142,-0.5004 -1.12142,-1.122 l 0,-31.4258 c 0,-0.2911 0.10969,-0.5556 0.29015,-0.7546" opacity="1" fill="none" fill-opacity="1" stroke="#4b31aa" stroke-width="1" stroke-linecap="round" stroke-linejoin="round" stroke-miterlimit="4" stroke-dasharray="none" stroke-dashoffset="0" stroke-opacity="1"></path>
      <path id="path4176-8-7-6" d="m -685.18495,-57.0999 7.33623,0" fill="none" fill-rule="evenodd" stroke="#4b31aa" stroke-width="1px" stroke-linecap="round" stroke-linejoin="miter" stroke-opacity="1"></path>
      <path id="path4178-3-2-4" d="m -685.18495,-53.0999 7.33623,0" fill="none" fill-rule="evenodd" stroke="#4b31aa" stroke-width="1px" stroke-linecap="round" stroke-linejoin="miter" stroke-opacity="1"></path>
      <path id="path4180-8-4-1" d="m -693.80887,-49.0999 15.96015,0" fill="none" fill-rule="evenodd" stroke="#4b31aa" stroke-width="1px" stroke-linecap="round" stroke-linejoin="miter" stroke-opacity="1"></path>
      <path id="path4182-06-2" d="m -693.80887,-45.0999 15.96015,0" fill="none" fill-rule="evenodd" stroke="#4b31aa" stroke-width="1px" stroke-linecap="round" stroke-linejoin="miter" stroke-opacity="1"></path>
      <path id="path4184-2-8" d="m -693.80887,-41.0999 15.96015,0" fill="none" fill-rule="evenodd" stroke="#4b31aa" stroke-width="1px" stroke-linecap="round" stroke-linejoin="miter" stroke-opacity="1"></path>
      <path id="path4186-9-8" d="m -693.80887,-37.0999 7.63953,0" fill="none" fill-rule="evenodd" stroke="#4b31aa" stroke-width="1px" stroke-linecap="round" stroke-linejoin="miter" stroke-opacity="1"></path>
      <path id="path4305-2-0-2" d="m -665.48613,-53.332109 0,-4.12256 c 3.96879,-1.892279 6.4986,-5.899789 6.50301,-10.301581 0,-6.308453 -5.10705,-11.422473 -11.40693,-11.422473 -6.29988,0 -11.40694,5.11402 -11.40694,11.422473 0.006,4.399927 2.53585,8.405026 6.50302,10.296683 l 0,4.089522" opacity="1" fill="#f9d015" fill-opacity="1" stroke="#4b31aa" stroke-width=".99999994" stroke-linecap="butt" stroke-linejoin="miter" stroke-miterlimit="4" stroke-dasharray="none" stroke-dashoffset="0" stroke-opacity="1"></path>
      <path id="path12698" d="m -661.41211,-1063.1484 -13.88281,17.6621 0,3.7539 9.80859,0.039 0,-4.123 c 3.96879,-1.8923 6.4995,-5.9009 6.50391,-10.3027 0,-2.6543 -0.91309,-5.0899 -2.42969,-7.0293 z" transform="translate(0 988.362)" opacity="1" fill="#d6b013" fill-opacity="1" stroke="none" stroke-width=".99999994" stroke-linecap="butt" stroke-linejoin="miter" stroke-miterlimit="4" stroke-dasharray="none" stroke-dashoffset="0" stroke-opacity="1"></path>
      <rect id="rect4317-0-8-8" width="12.102" height="1.563" x="-676.441" y="-53.442" ry=".781" opacity="1" fill="#7693dd" fill-opacity="1" stroke="#4b31aa" stroke-width=".99999994" stroke-linecap="butt" stroke-linejoin="miter" stroke-miterlimit="4" stroke-dasharray="none" stroke-dashoffset="0" stroke-opacity="1"></rect>
      <path id="path4345-6-1-8" d="m -668.22685,-46.90052 0,1.76409" opacity="1" fill="none" fill-rule="evenodd" stroke="#4b31aa" stroke-width=".99999994" stroke-linecap="round" stroke-linejoin="miter" stroke-miterlimit="4" stroke-dasharray="none" stroke-opacity="1"></path>
      <path id="path4347-1-3-8" d="m -672.55326,-46.90052 0,1.76409" opacity="1" fill="none" fill-rule="evenodd" stroke="#4b31aa" stroke-width=".99999994" stroke-linecap="round" stroke-linejoin="miter" stroke-miterlimit="4" stroke-dasharray="none" stroke-opacity="1"></path>
      <rect id="rect4353-5-1-6" width="13.877" height="1.563" x="-677.329" y="-51.878" ry=".781" opacity="1" fill="#7693dd" fill-opacity="1" stroke="#4b31aa" stroke-width=".99999994" stroke-linecap="butt" stroke-linejoin="miter" stroke-miterlimit="4" stroke-dasharray="none" stroke-dashoffset="0" stroke-opacity="1"></rect>
      <rect id="rect4355-5-1-8" width="12.102" height="1.563" x="-676.441" y="-50.308" ry=".781" opacity="1" fill="#7693dd" fill-opacity="1" stroke="#4b31aa" stroke-width=".99999994" stroke-linecap="butt" stroke-linejoin="miter" stroke-miterlimit="4" stroke-dasharray="none" stroke-dashoffset="0" stroke-opacity="1"></rect>
      <rect id="rect4357-4-0-3" width="9.932" height="1.563" x="-675.356" y="-48.744" ry=".781" opacity="1" fill="#7693dd" fill-opacity="1" stroke="#4b31aa" stroke-width=".99999994" stroke-linecap="butt" stroke-linejoin="miter" stroke-miterlimit="4" stroke-dasharray="none" stroke-dashoffset="0" stroke-opacity="1"></rect>
      <path id="path4359-7-3-8" d="m -670.38788,-57.714156 -0.005,4.58945" opacity="1" fill="none" fill-rule="evenodd" stroke="#4b31aa" stroke-width=".99999994" stroke-linecap="butt" stroke-linejoin="miter" stroke-miterlimit="4" stroke-dasharray="none" stroke-opacity="1"></path>
      <path id="path4240-6-4-3" d="m -670.94398,-77.011565 c -4.44126,0.572768 -7.93297,4.18335 -8.33235,8.685035" opacity="1" fill="none" fill-opacity="1" stroke="#4b31aa" stroke-width=".99999994" stroke-linecap="round" stroke-linejoin="miter" stroke-miterlimit="4" stroke-dasharray="none" stroke-dashoffset="0" stroke-opacity="1"></path>
      <path id="path4369-39-3" d="m -704.53703,-79.9029 6.15658,1e-4" fill="none" fill-rule="evenodd" stroke="#4b31aa" stroke-width=".99999994px" stroke-linecap="round" stroke-linejoin="miter" stroke-opacity="1"></path>
      <path id="path4371-1-8" d="m -696.78034,-79.9029 2.56299,1e-4" fill="none" fill-rule="evenodd" stroke="#4b31aa" stroke-width=".99999994px" stroke-linecap="round" stroke-linejoin="miter" stroke-opacity="1"></path>
      <path id="path4373-96-0" d="m -694.65087,-81.9028 -9.04685,-1e-4" fill="none" fill-rule="evenodd" stroke="#4b31aa" stroke-width=".99999994px" stroke-linecap="round" stroke-linejoin="miter" stroke-opacity="1"></path>
      <path id="path4375-93-4" d="m -705.3266,-81.9028 -3.1696,-1e-4" fill="none" fill-rule="evenodd" stroke="#4b31aa" stroke-width=".99999994px" stroke-linecap="round" stroke-linejoin="miter" stroke-opacity="1"></path>
      <circle id="circle4377-3-7" cx="-657.168" cy="-77.45" r="1.471" opacity="1" fill="#f9d015" fill-opacity="1" stroke="#4b31aa" stroke-width="1" stroke-linecap="round" stroke-linejoin="round" stroke-miterlimit="4" stroke-dasharray="none" stroke-dashoffset="0" stroke-opacity="1"></circle>
      <path id="rect4848-2-8-6" d="m -710.23039,-76.22975 c -1.18211,0 -2.13331,0.94966 -2.13331,2.1298 l 0,8.39645 c 0,1.1802 0.9512,2.1298 2.13331,2.1298 l 11.7609,0 3.78886,4.3121 0,-4.3121 1.29458,0 c 1.1821,0 2.1333,-0.9496 2.1333,-2.1298 l 0,-8.39645 c 0,-1.18014 -0.9512,-2.1298 -2.1333,-2.1298 z" opacity="1" fill="#bcd5e2" fill-opacity="1" stroke="#4b31aa" stroke-width="1" stroke-linecap="butt" stroke-linejoin="round" stroke-miterlimit="4" stroke-dasharray="none" stroke-dashoffset="0" stroke-opacity="1"></path>
      <path id="path4167-05-8" d="m -696.94766,-73.96365 -6.6168,5.48925 -2.91181,-3.3215 -0.2374,2.9248 2.91183,3.3217 6.61679,-5.4893 z" fill="#f7931e" fill-opacity="1" fill-rule="evenodd" stroke="#4b31aa" stroke-width="1" stroke-linecap="round" stroke-linejoin="round" stroke-miterlimit="4" stroke-dasharray="none" stroke-opacity="1"></path>
      <circle id="circle4409-6-9" cx="-686.668" cy="-77.45" r="1.471" opacity="1" fill="#f9d015" fill-opacity="1" stroke="#4b31aa" stroke-width="1" stroke-linecap="round" stroke-linejoin="round" stroke-miterlimit="4" stroke-dasharray="none" stroke-dashoffset="0" stroke-opacity="1"></circle>
      <path id="path12720" d="m -665.48613,-53.332109 0,-4.12256 c 3.96879,-1.892279 6.4986,-5.899789 6.50301,-10.301581 0,-6.308453 -5.10705,-11.422473 -11.40693,-11.422473 -6.29988,0 -11.40694,5.11402 -11.40694,11.422473 0.006,4.399927 2.53585,8.405026 6.50302,10.296683 l 0,4.089522" opacity="1" fill="none" fill-opacity="1" stroke="#4b31aa" stroke-width=".99999994" stroke-linecap="butt" stroke-linejoin="miter" stroke-miterlimit="4" stroke-dasharray="none" stroke-dashoffset="0" stroke-opacity="1"></path>
      <path id="path12726" d="m -691.58984,-1063.6074 -20.28907,10.8808 c 0.3905,0.4792 0.97848,0.7911 1.64844,0.7911 l 11.76172,0 3.78906,4.3125 0,-4.3125 1.29297,0 c 1.1821,0 2.13477,-0.9507 2.13477,-2.1309 l 0,-8.3965 c 0,-0.4234 -0.12628,-0.8137 -0.33789,-1.1445 z" transform="translate(0 988.362)" opacity="1" fill="#79a1e8" fill-opacity="1" stroke="none" stroke-width="1" stroke-linecap="butt" stroke-linejoin="round" stroke-miterlimit="4" stroke-dasharray="none" stroke-dashoffset="0" stroke-opacity="1"></path>
      <path id="path12728" d="m -697.08203,-1060.6621 -5.28906,2.8359 -1.19336,0.9903 -0.20899,-0.2383 -1.90429,1.0215 1.875,2.1406 6.61718,-5.4883 0.10352,-1.2617 z" transform="translate(0 988.362)" fill="#da7907" fill-opacity="1" fill-rule="evenodd" stroke="none" stroke-width="1" stroke-linecap="round" stroke-linejoin="round" stroke-miterlimit="4" stroke-dasharray="none" stroke-opacity="1"></path>
      <path id="path12734" d="m -710.23039,-76.22975 c -1.18211,0 -2.13331,0.94966 -2.13331,2.1298 l 0,8.39645 c 0,1.1802 0.9512,2.1298 2.13331,2.1298 l 11.7609,0 3.78886,4.3121 0,-4.3121 1.29458,0 c 1.1821,0 2.1333,-0.9496 2.1333,-2.1298 l 0,-8.39645 c 0,-1.18014 -0.9512,-2.1298 -2.1333,-2.1298 z" opacity="1" fill="none" fill-opacity="1" stroke="#4b31aa" stroke-width="1" stroke-linecap="butt" stroke-linejoin="round" stroke-miterlimit="4" stroke-dasharray="none" stroke-dashoffset="0" stroke-opacity="1"></path>
      <path id="path12736" d="m -696.94766,-73.96365 -6.6168,5.48925 -2.91181,-3.3215 -0.2374,2.9248 2.91183,3.3217 6.61679,-5.4893 z" fill="none" fill-opacity="1" fill-rule="evenodd" stroke="#4b31aa" stroke-width="1" stroke-linecap="round" stroke-linejoin="round" stroke-miterlimit="4" stroke-dasharray="none" stroke-opacity="1"></path>
      <path id="path4172-2-8-2" d="m -674.05278,-35.6418 -6.64062,0.01 c -0.62158,9e-4 -1.12482,0.5007 -1.12143,1.122 l 0.0311,5.7031 z" opacity="1" fill="#483db6" fill-opacity="1" stroke="#4b31aa" stroke-width="1" stroke-linecap="round" stroke-linejoin="round" stroke-miterlimit="4" stroke-dasharray="none" stroke-dashoffset="0" stroke-opacity="1"></path>
    </g>
  </g>
</svg>
