<svg xmlns="http://www.w3.org/2000/svg" width="512" height="512" fill-rule="evenodd" clip-rule="evenodd" image-rendering="optimizeQuality" shape-rendering="geometricPrecision" text-rendering="geometricPrecision" viewBox="0 0 512 512" id="feed">
  <path fill="#cfdfe8" d="M41.3 503.86c-5.97,0 -15.76,-1.25 -24.42,-8.1 -10.06,-7.96 -15.66,-20.99 -16.65,-38.73 -0.01,-0.11 -0.01,-0.22 -0.01,-0.33l0 -442.9c0,-3.31 2.69,-6 6,-6l400.71 0c3.31,0 5.99,2.69 5.99,6 0,200.72 3.24,283.01 33.81,477.76 3.91,0 7.66,1.26 7.66,6 0,3.31 -2.69,5.99 -5.99,5.99l-0.52 0 -401.67 0c-0.88,0.12 -2.61,0.31 -4.91,0.31z"></path>
  <path fill="#91b3c1" d="M456.36 504.2c-30.56,0 -55.43,-24.86 -55.43,-55.42l0 -324.93c0,-3.31 2.69,-5.99 6,-5.99l98.85 0c3.31,0 6,2.68 6,5.99l0 324.93c0,30.56 -24.86,55.42 -55.42,55.42z"></path>
  <path fill="#7c97a3" d="M400.93 421.04l0 -11.99 49.43 0 0 -291.19 11.99 0 0 297.18c0,3.31 -2.68,6 -5.99,6l-55.43 0z"></path>
  <path fill="#4d4d4f" d="M370.9 278.15l-317.66 0c-3.31 0-6-2.68-6-5.99 0-3.31 2.69-6 6-6l317.66 0c3.31 0 6 2.69 6 6 0 3.31-2.69 5.99-6 5.99zM370.9 330.88l-242.82 0c-3.31 0-6-2.69-6-6 0-3.31 2.69-5.99 6-5.99l242.82 0c3.31 0 6 2.68 6 5.99 0 3.31-2.69 6-6 6zM370.9 383.6l-185.61 0c-3.31 0-6-2.69-6-5.99 0-3.32 2.69-6 6-6l185.61 0c3.31 0 6 2.68 6 6 0 3.3-2.69 5.99-6 5.99zM370.9 436.32l-242.82 0c-3.31 0-6-2.68-6-5.99 0-3.31 2.69-6 6-6l242.82 0c3.31 0 6 2.69 6 6 0 3.31-2.69 5.99-6 5.99zM370.9 87.02l-317.66 0c-3.31 0-6-2.68-6-5.99 0-3.31 2.69-6 6-6l317.66 0c3.31 0 6 2.69 6 6 0 3.31-2.69 5.99-6 5.99z"></path>
  <g>
    <path fill="#d53f4b" d="M340.15 228.06l-162.01 0c-9.48 0-17.19-7.71-17.19-17.19l0-47.46c0-9.48 7.71-17.2 17.19-17.2l162.01 0c9.48 0 17.2 7.72 17.2 17.2l0 47.46c0 9.48-7.72 17.19-17.2 17.19zM118.87 228.06l-64.58 0c-8.76 0-15.89-7.12-15.89-15.88l0-50.08c0-8.76 7.13-15.89 15.89-15.89l64.58 0c8.76 0 15.88 7.13 15.88 15.89l0 50.08c0 8.76-7.12 15.88-15.88 15.88z"></path>
  </g>
</svg>
