<svg xmlns="http://www.w3.org/2000/svg" width="163.839" height="163.839" fill-rule="evenodd" clip-rule="evenodd" image-rendering="optimizeQuality" shape-rendering="geometricPrecision" text-rendering="geometricPrecision" viewBox="0 0 1707 1707" id="fix">
  <path d="M1256 1707l-85 0c-23,0 -42,-19 -42,-42l0 -290c-3,0 -6,0 -9,0l-929 0c-63,0 -114,-51 -114,-113l0 -1149c0,-62 51,-113 114,-113l929 0c62,0 113,51 113,113l0 307c220,10 396,193 396,416 1,221 -174,403 -392,415l0 29 19 0c23,0 42,19 42,42l0 343c0,23 -19,42 -42,42zm-127 -379c0,-44 27,-48 61,-48l0 -29c-43,-3 -85,-12 -124,-26l-768 0c-30,0 -30,-47 0,-47l679 0c-36,-25 -68,-56 -94,-91l-585 0c-30,0 -30,-46 0,-46l554 0c-16,-28 -29,-59 -38,-91l-516 0c-30,0 -30,-46 0,-46l505 0c-5,-30 -7,-61 -5,-91l-500 0c-30,0 -30,-47 0,-47l505 0c5,-31 14,-61 26,-90l-531 0c-30,0 -30,-47 0,-47l554 0c19,-33 43,-64 70,-90l-624 0c-30,0 -30,-47 0,-47l681 0c60,-41 131,-67 207,-72l0 -307c0,-36 -30,-66 -66,-66l-929 0c-37,0 -67,30 -67,66l0 1149c0,37 30,67 67,67 96,0 917,2 938,-1zm83 -862l-4 0c-201,3 -364,168 -364,370 0,203 166,369 369,369 204,0 370,-166 370,-369 0,-203 -167,-372 -371,-370zm-201 -64l-712 0c-34,0 -61,-28 -61,-62l0 -128c0,-34 27,-61 61,-61l712 0c34,0 62,27 62,61l0 128c0,34 -28,62 -62,62zm-712 -205c-8,0 -14,7 -14,15l0 128c0,8 6,15 14,15l712 0c8,0 15,-7 15,-15l0 -128c0,-8 -7,-15 -15,-15l-712 0zm635 768c-49,-105 -33,-232 40,-322 68,-85 181,-129 288,-111 147,23 259,151 259,304 0,152 -113,281 -260,303 -135,21 -268,-49 -327,-174zm279 -390c-57,0 -113,19 -159,54 21,11 14,44 -10,44l-34 0c-24,29 -41,64 -50,102l84 0c30,0 30,47 0,47l-91 0c-2,35 4,71 15,102l76 0c30,0 30,47 0,47l-53 0c49,82 147,133 243,125l0 -520 -21 -1zm68 513c111,-30 193,-132 193,-252 0,-121 -82,-222 -193,-252l0 504zm-105 572l75 0 0 -333 -75 0 0 333z"></path>
  <path fill="#1aa1ff" d="M299 355l712 0c8,0 15,-7 15,-15l0 -128c0,-8 -7,-15 -15,-15l-712 0c-8,0 -14,7 -14,15l0 128c0,8 6,15 14,15z"></path>
  <path fill="#ffe4af" d="M299 402c-34,0 -61,-28 -61,-62l0 -128c0,-34 27,-61 61,-61l712 0c34,0 62,27 62,61l0 128c0,34 -28,62 -62,62l-712 0zm-1 137c-30,0 -30,-47 0,-47l681 0c60,-41 131,-67 207,-72l0 -307c0,-36 -30,-66 -66,-66l-929 0c-37,0 -67,30 -67,66l0 1149c0,37 30,67 67,67 96,0 917,2 938,-1 0,-44 27,-48 61,-48l0 -29c-43,-3 -85,-12 -124,-26l-768 0c-30,0 -30,-47 0,-47l679 0c-36,-25 -68,-56 -94,-91l-585 0c-30,0 -30,-46 0,-46l554 0c-16,-28 -29,-59 -38,-91l-516 0c-30,0 -30,-46 0,-46l505 0c-5,-30 -7,-61 -5,-91l-500 0c-30,0 -30,-47 0,-47l505 0c5,-31 14,-61 26,-90l-531 0c-30,0 -30,-47 0,-47l554 0c19,-33 43,-64 70,-90l-624 0z"></path>
  <path fill="#c06000" d="M1208 466c-201,3 -364,168 -364,370 0,203 166,369 369,369 204,0 370,-166 370,-369 0,-203 -167,-372 -371,-370l-4 0zm-234 177c68,-85 181,-129 288,-111 147,23 259,151 259,304 0,152 -113,281 -260,303 -135,21 -268,-49 -327,-174 -49,-105 -33,-232 40,-322z"></path>
  <path fill="#9ff" d="M1213 575c-57 0-113 19-159 54 21 11 14 44-10 44l-34 0c-24 29-41 64-50 102l84 0c30 0 30 47 0 47l-91 0c-2 35 4 71 15 102l76 0c30 0 30 47 0 47l-53 0c49 82 147 133 243 125l0-520-21-1zM1281 584l0 504c111-30 193-132 193-252 0-121-82-222-193-252z"></path>
  <polygon fill="#c06000" points="1251 1327 1176 1327 1176 1660 1251 1660"></polygon>
</svg>
