<?xml version="1.0" ?><svg enable-background="new 0 0 256 256" id="Layer_1" version="1.1" viewBox="0 0 256 256" xml:space="preserve" xmlns="http://www.w3.org/2000/svg" xmlns:xlink="http://www.w3.org/1999/xlink"><g><g><g><path d="M8.613,53.805v150.352c0,10.381,8.15,18.797,18.204,18.797h191.14c10.054,0,18.204-8.415,18.204-18.797     V53.805H8.613z" fill="#E0EBFC"/></g><g><path d="M217.957,224.953H26.817c-11.14,0-20.204-9.329-20.204-20.796V53.806c0-1.104,0.896-2,2-2h227.547     c1.104,0,2,0.896,2,2v150.352C238.161,215.624,229.097,224.953,217.957,224.953z M10.613,55.806v148.352     c0,9.262,7.269,16.796,16.204,16.796h191.14c8.935,0,16.204-7.534,16.204-16.796V55.806H10.613z" fill="#3762CC"/></g><g><path d="M217.663,3H27.111C16.895,3,8.613,11.282,8.613,21.498v39.826h227.548V21.498     C236.161,11.282,227.879,3,217.663,3z" fill="#4671C6"/></g><g><path d="M236.161,63.324H8.613c-1.104,0-2-0.896-2-2V21.498C6.613,10.195,15.809,1,27.111,1h190.552     c11.302,0,20.498,9.195,20.498,20.498v39.826C238.161,62.429,237.265,63.324,236.161,63.324z M10.613,59.324h223.547V21.498     C234.161,12.401,226.76,5,217.663,5H27.111c-9.097,0-16.498,7.401-16.498,16.498V59.324z" fill="#3762CC"/></g><g><path d="M210.719,45.893h-15.966c-2.95,0-5.342-2.392-5.342-5.342V23.717c0-2.95,2.392-5.342,5.342-5.342h15.966     c2.95,0,5.342,2.392,5.342,5.342v16.834C216.061,43.501,213.669,45.893,210.719,45.893z" fill="#A4C9FF"/></g><g><path d="M210.719,47.893h-15.966c-4.048,0-7.342-3.294-7.342-7.342V23.717c0-4.048,3.293-7.342,7.342-7.342     h15.966c4.048,0,7.342,3.294,7.342,7.342v16.834C218.061,44.599,214.767,47.893,210.719,47.893z M194.752,20.375     c-1.843,0-3.342,1.499-3.342,3.342v16.834c0,1.843,1.499,3.342,3.342,3.342h15.966c1.843,0,3.342-1.499,3.342-3.342V23.717     c0-1.843-1.5-3.342-3.342-3.342H194.752z" fill="#3762CC"/></g><g><path d="M170.415,45.893h-15.966c-2.95,0-5.342-2.392-5.342-5.342V23.717c0-2.95,2.392-5.342,5.342-5.342h15.966     c2.95,0,5.342,2.392,5.342,5.342v16.834C175.757,43.501,173.365,45.893,170.415,45.893z" fill="#A4C9FF"/></g><g><path d="M170.415,47.893h-15.966c-4.048,0-7.342-3.294-7.342-7.342V23.717c0-4.048,3.293-7.342,7.342-7.342     h15.966c4.048,0,7.342,3.294,7.342,7.342v16.834C177.757,44.599,174.463,47.893,170.415,47.893z M154.448,20.375     c-1.843,0-3.342,1.499-3.342,3.342v16.834c0,1.843,1.499,3.342,3.342,3.342h15.966c1.843,0,3.342-1.499,3.342-3.342V23.717     c0-1.843-1.5-3.342-3.342-3.342H154.448z" fill="#3762CC"/></g><g><path d="M131.863,45.893h-15.966c-2.95,0-5.342-2.392-5.342-5.342V23.717c0-2.95,2.392-5.342,5.342-5.342h15.966     c2.95,0,5.342,2.392,5.342,5.342v16.834C137.205,43.501,134.813,45.893,131.863,45.893z" fill="#A4C9FF"/></g><g><path d="M131.863,47.893h-15.966c-4.048,0-7.342-3.294-7.342-7.342V23.717c0-4.048,3.293-7.342,7.342-7.342     h15.966c4.048,0,7.342,3.294,7.342,7.342v16.834C139.205,44.599,135.911,47.893,131.863,47.893z M115.896,20.375     c-1.843,0-3.342,1.499-3.342,3.342v16.834c0,1.843,1.499,3.342,3.342,3.342h15.966c1.843,0,3.342-1.499,3.342-3.342V23.717     c0-1.843-1.5-3.342-3.342-3.342H115.896z" fill="#3762CC"/></g></g><g><path d="M184.004,201.312H141.77c-2.421,0-4.383-1.962-4.383-4.383V78.69c0-2.421,1.962-4.383,4.383-4.383h42.233    c2.421,0,4.383,1.962,4.383,4.383v118.238C188.387,199.349,186.424,201.312,184.004,201.312z" fill="#E0EBFC"/></g><g><path d="M122.887,197.182V78.344c0-2.281-1.791-4.13-4-4.13h-91c-2.209,0-4,1.849-4,4.13v118.838    c0,2.281,1.791,4.13,4,4.13h91C121.096,201.312,122.887,199.462,122.887,197.182z" fill="#A4C9FF"/></g><g><path d="M184.004,203.312H141.77c-3.52,0-6.383-2.863-6.383-6.383V78.69c0-3.521,2.864-6.384,6.383-6.384h42.234    c3.52,0,6.383,2.863,6.383,6.384v118.238C190.387,200.448,187.523,203.312,184.004,203.312z M141.77,76.307    c-1.314,0-2.383,1.069-2.383,2.384v118.238c0,1.313,1.069,2.383,2.383,2.383h42.234c1.314,0,2.383-1.069,2.383-2.383V78.69    c0-1.314-1.069-2.384-2.383-2.384H141.77z" fill="#3762CC"/></g><g><path d="M118.887,203.312h-91c-3.309,0-6-2.75-6-6.13V78.344c0-3.38,2.691-6.13,6-6.13h91c3.309,0,6,2.75,6,6.13    v118.838C124.887,200.562,122.195,203.312,118.887,203.312z M27.887,76.214c-1.103,0-2,0.955-2,2.13v118.838    c0,1.175,0.897,2.13,2,2.13h91c1.103,0,2-0.955,2-2.13V78.344c0-1.175-0.897-2.13-2-2.13H27.887z" fill="#3762CC"/></g><g><path d="M243.759,92.616h-65.098c-2.004,0-3.628,1.677-3.628,3.746v3.985l-5.982,3.12    c-0.885,0.462-0.885,1.767,0,2.229l5.982,3.12v3.985c0,2.069,1.624,3.746,3.628,3.746h65.098c2.004,0,3.628-1.677,3.628-3.746    v-16.44C247.387,94.293,245.763,92.616,243.759,92.616z" fill="#6BDDDD"/></g><g><path d="M231.639,106.197h-38.927c-1.104,0-2-0.896-2-2s0.896-2,2-2h38.927c1.104,0,2,0.896,2,2    S232.743,106.197,231.639,106.197z" fill="#3762CC"/></g><g><path d="M243.759,118.548h-65.098c-3.103,0-5.627-2.578-5.627-5.746v-2.772l-4.907-2.56    c-1.073-0.56-1.739-1.666-1.739-2.888s0.667-2.328,1.739-2.888l4.907-2.56v-2.772c0-3.168,2.524-5.746,5.627-5.746h65.098    c3.103,0,5.627,2.578,5.627,5.746v16.439C249.387,115.97,246.862,118.548,243.759,118.548z M171.24,104.582l4.719,2.461    c0.661,0.345,1.075,1.028,1.075,1.773v3.985c0,0.963,0.73,1.746,1.627,1.746h65.098c0.897,0,1.627-0.783,1.627-1.746V96.362    c0-0.963-0.73-1.746-1.627-1.746h-65.098c-0.897,0-1.627,0.783-1.627,1.746v3.985c0,0.745-0.415,1.429-1.075,1.773L171.24,104.582    z" fill="#3762CC"/></g><g><path d="M151.741,253H109.97v-14.106c0-7.55,6.12-13.67,13.67-13.67h14.432c7.55,0,13.67,6.12,13.67,13.67V253z" fill="#A4C9FF"/></g><g><ellipse cx="130.856" cy="207.589" fill="#F9CFCF" rx="17.079" ry="17.636"/></g><g><path d="M130.856,227.225c-10.521,0-19.08-8.809-19.08-19.636s8.559-19.636,19.08-19.636s19.08,8.809,19.08,19.636    S141.376,227.225,130.856,227.225z M130.856,191.953c-8.315,0-15.08,7.015-15.08,15.636s6.765,15.636,15.08,15.636    s15.08-7.015,15.08-15.636S139.171,191.953,130.856,191.953z" fill="#3762CC"/></g><g><path d="M151.742,255H109.97c-1.104,0-2-0.896-2-2v-14.105c0-8.641,7.029-15.67,15.67-15.67h14.432    c8.641,0,15.67,7.029,15.67,15.67V253C153.742,254.104,152.846,255,151.742,255z M111.97,251h37.771v-12.105    c0-6.435-5.235-11.67-11.67-11.67H123.64c-6.435,0-11.67,5.235-11.67,11.67V251z" fill="#3762CC"/></g><g><path d="M109.97,253H68.199v-14.106c0-7.55,6.12-13.67,13.67-13.67h14.432c7.55,0,13.67,6.12,13.67,13.67V253z" fill="#6BDDDD"/></g><g><ellipse cx="89.085" cy="207.589" fill="#F9CFCF" rx="17.079" ry="17.636"/></g><g><path d="M89.085,227.225c-10.521,0-19.08-8.809-19.08-19.636s8.559-19.636,19.08-19.636    c10.52,0,19.079,8.809,19.079,19.636S99.605,227.225,89.085,227.225z M89.085,191.953c-8.315,0-15.08,7.015-15.08,15.636    s6.765,15.636,15.08,15.636c8.314,0,15.079-7.015,15.079-15.636S97.399,191.953,89.085,191.953z" fill="#3762CC"/></g><g><path d="M109.97,255H68.199c-1.104,0-2-0.896-2-2v-14.105c0-8.641,7.029-15.67,15.669-15.67h14.432    c8.64,0,15.669,7.029,15.669,15.67V253C111.97,254.104,111.075,255,109.97,255z M70.199,251h37.771v-12.105    c0-6.435-5.235-11.67-11.669-11.67H81.869c-6.435,0-11.669,5.235-11.669,11.67V251z" fill="#3762CC"/></g><g><path d="M193.513,253h-41.771v-14.106c0-7.55,6.12-13.67,13.67-13.67h14.432c7.55,0,13.67,6.12,13.67,13.67V253z" fill="#F9A7A7"/></g><g><ellipse cx="172.627" cy="207.589" fill="#F9CFCF" rx="17.079" ry="17.636"/></g><g><path d="M172.627,227.225c-10.521,0-19.08-8.809-19.08-19.636s8.559-19.636,19.08-19.636s19.08,8.809,19.08,19.636    S183.147,227.225,172.627,227.225z M172.627,191.953c-8.315,0-15.08,7.015-15.08,15.636s6.765,15.636,15.08,15.636    s15.08-7.015,15.08-15.636S180.942,191.953,172.627,191.953z" fill="#3762CC"/></g><g><path d="M193.513,255h-41.771c-1.104,0-2-0.896-2-2v-14.105c0-8.641,7.029-15.67,15.669-15.67h14.432    c8.641,0,15.67,7.029,15.67,15.67V253C195.513,254.104,194.617,255,193.513,255z M153.742,251h37.771v-12.105    c0-6.435-5.235-11.67-11.67-11.67h-14.432c-6.435,0-11.669,5.235-11.669,11.67V251z" fill="#3762CC"/></g><g><g><ellipse cx="74.443" cy="135.116" fill="#E0EBFC" rx="11.76" ry="12.143"/></g><g><g><g><path d="M35.664,144.308l9.175,0.528c0.538,1.742,1.215,3.419,2.02,5.018l-6.131,7.077       c-0.811,0.937-0.773,2.364,0.088,3.253l9.351,9.655c0.86,0.889,2.243,0.928,3.15,0.091l6.854-6.331       c1.549,0.831,3.173,1.53,4.86,2.085l0.511,9.474c0.068,1.254,1.072,2.236,2.289,2.236h13.224c1.217,0,2.222-0.981,2.289-2.236       l0.511-9.474c1.687-0.555,3.311-1.255,4.86-2.085l6.854,6.331c0.907,0.838,2.29,0.798,3.15-0.091l9.351-9.655       c0.86-0.889,0.899-2.316,0.088-3.253l-6.131-7.077c0.805-1.599,1.482-3.277,2.02-5.018l9.175-0.528       c1.215-0.07,2.165-1.107,2.165-2.364v-13.655c0-1.257-0.95-2.294-2.165-2.364l-9.175-0.528       c-0.538-1.742-1.215-3.419-2.02-5.018l6.131-7.077c0.811-0.937,0.773-2.364-0.088-3.253l-9.351-9.655       c-0.86-0.889-2.243-0.928-3.15-0.091l-6.854,6.331c-1.549-0.831-3.173-1.53-4.86-2.085l-0.511-9.474       c-0.068-1.254-1.072-2.236-2.289-2.236H67.83c-1.217,0-2.222,0.981-2.289,2.236l-0.511,9.474       c-1.687,0.555-3.311,1.255-4.86,2.085l-6.854-6.331c-0.907-0.838-2.29-0.798-3.15,0.091l-9.351,9.655       c-0.86,0.889-0.899,2.316-0.088,3.253l6.131,7.077c-0.805,1.599-1.482,3.277-2.02,5.018l-9.175,0.528       c-1.215,0.07-2.165,1.107-2.165,2.364v13.655C33.498,143.2,34.449,144.238,35.664,144.308z M74.443,117.585       c9.377,0,16.978,7.849,16.978,17.531s-7.602,17.531-16.978,17.531s-16.978-7.849-16.978-17.531S65.066,117.585,74.443,117.585z       " fill="#F9A7A7"/></g></g><g><g><path d="M81.055,179.394H67.83c-2.279,0-4.162-1.813-4.286-4.128l-0.439-8.141       c-0.881-0.333-1.75-0.705-2.6-1.113l-5.832,5.387c-1.711,1.579-4.322,1.506-5.944-0.168l-9.351-9.655       c-1.575-1.627-1.646-4.242-0.163-5.954l5.273-6.087c-0.414-0.909-0.788-1.839-1.122-2.78l-7.817-0.449c0,0,0,0,0,0h0       c-2.271-0.131-4.051-2.046-4.051-4.361v-13.654c0-2.313,1.779-4.229,4.05-4.361l7.819-0.449       c0.333-0.941,0.708-1.871,1.122-2.78l-5.273-6.087c-1.483-1.712-1.412-4.327,0.162-5.954l9.352-9.655       c1.621-1.674,4.231-1.75,5.943-0.169l5.833,5.388c0.85-0.408,1.719-0.78,2.6-1.113l0.439-8.141       c0.125-2.314,2.007-4.128,4.286-4.128h13.225c2.278,0,4.161,1.813,4.287,4.127l0.439,8.142c0.881,0.333,1.75,0.704,2.6,1.113       l5.832-5.387c1.712-1.581,4.323-1.506,5.944,0.168l9.351,9.655c1.575,1.627,1.646,4.242,0.163,5.954l-5.273,6.087       c0.414,0.909,0.788,1.839,1.121,2.78l7.819,0.449c2.272,0.132,4.051,2.048,4.051,4.361v13.654c0,2.315-1.78,4.231-4.052,4.361       l-7.818,0.449c-0.333,0.941-0.708,1.871-1.121,2.78l5.273,6.087c1.483,1.712,1.412,4.327-0.162,5.954l-9.352,9.655       c-1.621,1.673-4.232,1.749-5.943,0.169l-5.833-5.388c-0.85,0.409-1.719,0.78-2.6,1.113l-0.439,8.141       C85.216,177.581,83.333,179.394,81.055,179.394z M60.17,161.599c0.323,0,0.647,0.078,0.945,0.237       c1.452,0.779,2.979,1.435,4.539,1.947c0.783,0.258,1.328,0.97,1.373,1.793l0.511,9.475c0.01,0.189,0.141,0.343,0.292,0.343       h13.225c0.151,0,0.282-0.154,0.292-0.344l0.511-9.474c0.044-0.823,0.589-1.535,1.373-1.793c1.56-0.513,3.087-1.168,4.539-1.946       c0.752-0.404,1.677-0.285,2.303,0.293l6.854,6.331c0.108,0.1,0.252,0.096,0.356-0.014l9.352-9.655       c0.14-0.145,0.146-0.397,0.012-0.552l-6.131-7.077c-0.53-0.612-0.639-1.484-0.275-2.208c0.76-1.511,1.397-3.095,1.895-4.709       c0.246-0.799,0.962-1.36,1.796-1.408l9.175-0.527c0.155-0.009,0.28-0.173,0.28-0.367v-13.654c0-0.193-0.126-0.358-0.281-0.367       l-9.174-0.527c-0.834-0.048-1.55-0.609-1.796-1.408c-0.498-1.614-1.135-3.198-1.895-4.709       c-0.364-0.724-0.255-1.596,0.275-2.208l6.131-7.077c0.134-0.154,0.128-0.407-0.013-0.552l-9.351-9.655       c-0.105-0.109-0.248-0.113-0.358-0.013l-6.853,6.33c-0.626,0.579-1.551,0.697-2.303,0.293       c-1.452-0.778-2.979-1.434-4.539-1.946c-0.783-0.258-1.328-0.97-1.373-1.793l-0.511-9.475c-0.01-0.188-0.142-0.343-0.292-0.343       H67.83c-0.151,0-0.282,0.153-0.292,0.343l-0.511,9.475c-0.044,0.823-0.589,1.535-1.373,1.793       c-1.56,0.513-3.087,1.168-4.539,1.947c-0.751,0.403-1.675,0.286-2.303-0.294l-6.854-6.331       c-0.108-0.101-0.252-0.095-0.356,0.014l-9.352,9.655c-0.14,0.145-0.146,0.397-0.013,0.552l6.131,7.077       c0.53,0.612,0.639,1.484,0.275,2.208c-0.759,1.51-1.397,3.094-1.896,4.71c-0.246,0.798-0.962,1.359-1.796,1.407l-9.175,0.527       c-0.154,0.009-0.28,0.174-0.28,0.367v13.654c0,0.194,0.125,0.358,0.279,0.367c0,0,0,0,0.001,0l9.175,0.527       c0.834,0.048,1.55,0.609,1.796,1.407c0.499,1.616,1.136,3.2,1.896,4.71c0.364,0.724,0.255,1.596-0.275,2.208l-6.131,7.077       c-0.134,0.154-0.128,0.407,0.013,0.552l9.351,9.655c0.105,0.109,0.248,0.112,0.357,0.013l6.854-6.33       C59.191,161.78,59.678,161.599,60.17,161.599z M74.442,154.647c-10.464,0-18.978-8.762-18.978-19.531       s8.514-19.531,18.978-19.531c10.465,0,18.979,8.762,18.979,19.531S84.907,154.647,74.442,154.647z M74.442,119.585       c-8.259,0-14.978,6.968-14.978,15.531s6.719,15.531,14.978,15.531c8.259,0,14.979-6.968,14.979-15.531       S82.702,119.585,74.442,119.585z" fill="#3762CC"/></g></g><g><path d="M74.443,157.556c12.002,0,21.732-10.047,21.732-22.44s-9.73-22.44-21.732-22.44      s-21.732,10.047-21.732,22.44S62.44,157.556,74.443,157.556z M74.443,122.973c6.485,0,11.76,5.447,11.76,12.143      s-5.275,12.143-11.76,12.143c-6.485,0-11.76-5.447-11.76-12.143S67.958,122.973,74.443,122.973z" fill="#F9CFCF"/></g><g><path d="M74.442,159.557c-13.086,0-23.732-10.964-23.732-24.44s10.646-24.44,23.732-24.44      s23.732,10.964,23.732,24.44S87.528,159.557,74.442,159.557z M74.442,114.676c-10.88,0-19.732,9.17-19.732,20.44      s8.852,20.44,19.732,20.44s19.732-9.17,19.732-20.44S85.323,114.676,74.442,114.676z M74.442,149.259      c-7.587,0-13.76-6.345-13.76-14.143s6.173-14.143,13.76-14.143s13.76,6.345,13.76,14.143S82.03,149.259,74.442,149.259z       M74.442,124.974c-5.382,0-9.76,4.55-9.76,10.143s4.378,10.143,9.76,10.143s9.76-4.55,9.76-10.143      S79.824,124.974,74.442,124.974z" fill="#3762CC"/></g></g></g><g><path d="M243.759,125.658h-65.098c-2.004,0-3.628,1.677-3.628,3.746v3.985l-5.982,3.12    c-0.885,0.462-0.885,1.767,0,2.229l5.982,3.12v3.985c0,2.069,1.624,3.746,3.628,3.746h65.098c2.004,0,3.628-1.677,3.628-3.746    v-16.44C247.387,127.335,245.763,125.658,243.759,125.658z" fill="#F9A7A7"/></g><g><path d="M231.639,140.272h-38.927c-1.104,0-2-0.896-2-2s0.896-2,2-2h38.927c1.104,0,2,0.896,2,2    S232.743,140.272,231.639,140.272z" fill="#3762CC"/></g><g><path d="M243.759,151.59h-65.098c-3.103,0-5.627-2.578-5.627-5.746v-2.772l-4.907-2.56    c-1.074-0.56-1.74-1.667-1.739-2.89c0-1.222,0.667-2.328,1.741-2.887l4.906-2.559v-2.773c0-3.168,2.524-5.745,5.627-5.745h65.098    c3.103,0,5.627,2.577,5.627,5.745v16.44C249.387,149.012,246.862,151.59,243.759,151.59z M171.24,137.624l4.719,2.461    c0.661,0.345,1.075,1.028,1.075,1.773v3.985c0,0.963,0.73,1.746,1.627,1.746h65.098c0.897,0,1.627-0.783,1.627-1.746v-16.44    c0-0.962-0.73-1.745-1.627-1.745h-65.098c-0.897,0-1.627,0.783-1.627,1.745v3.986c0,0.745-0.415,1.429-1.075,1.773L171.24,137.624    z" fill="#3762CC"/></g><g><path d="M243.759,158.7h-65.098c-2.004,0-3.628,1.677-3.628,3.746v3.985l-5.982,3.12    c-0.885,0.462-0.885,1.767,0,2.229l5.982,3.12v3.985c0,2.069,1.624,3.746,3.628,3.746h65.098c2.004,0,3.628-1.677,3.628-3.746    v-16.44C247.387,160.377,245.763,158.7,243.759,158.7z" fill="#A4C9FF"/></g><g><path d="M231.639,173.314h-38.927c-1.104,0-2-0.896-2-2s0.896-2,2-2h38.927c1.104,0,2,0.896,2,2    S232.743,173.314,231.639,173.314z" fill="#3762CC"/></g><g><path d="M243.759,184.632h-65.098c-3.103,0-5.627-2.578-5.627-5.746v-2.772l-4.907-2.56    c-1.073-0.56-1.739-1.666-1.739-2.889c0-1.222,0.667-2.328,1.739-2.888l4.907-2.559v-2.773c0-3.168,2.524-5.745,5.627-5.745    h65.098c3.103,0,5.627,2.577,5.627,5.745v16.44C249.387,182.054,246.862,184.632,243.759,184.632z M171.239,170.666l4.719,2.461    c0.661,0.345,1.075,1.028,1.075,1.773v3.985c0,0.963,0.73,1.746,1.627,1.746h65.098c0.897,0,1.627-0.783,1.627-1.746v-16.44    c0-0.962-0.73-1.745-1.627-1.745h-65.098c-0.897,0-1.627,0.783-1.627,1.745v3.986c0,0.745-0.415,1.429-1.075,1.773    L171.239,170.666z" fill="#3762CC"/></g></g></svg>