<svg xmlns="http://www.w3.org/2000/svg" xml:space="preserve" id="note" width="512" height="512" x="0" y="0" enable-background="new 0 0 512 512" version="1.1" viewBox="0 0 512 512">
  <g>
    <path fill="none" d="M159.13 142.62H256c4.14 0 7.5-3.36 7.5-7.5 0-1.475-.431-2.844-1.163-4.002-1.33 2.102-3.668 3.502-6.337 3.502h-96.87c-2.668 0-5.007-1.401-6.337-3.502-.732 1.158-1.163 2.528-1.163 4.002C151.63 139.26 154.99 142.62 159.13 142.62zM104.5 296.46h156.04l8-8H104.5c-2.668 0-5.006-1.399-6.335-3.5-.733 1.159-1.165 2.528-1.165 4C97 293.099 100.36 296.46 104.5 296.46zM82.39 79.5h250.35c7.56 0 13.71 6.15 13.71 13.72v-8c0-7.57-6.15-13.72-13.71-13.72H82.39c-7.56 0-13.71 6.15-13.71 13.72v8C68.68 85.65 74.83 79.5 82.39 79.5zM316.965 233.68c-1.329 2.1-3.667 3.5-6.335 3.5H104.5c-2.668 0-5.006-1.4-6.335-3.5-.733 1.159-1.165 2.528-1.165 4 0 4.14 3.36 7.5 7.5 7.5h206.13c.446 0 .882-.046 1.307-.122l6.072-6.073c.075-.425.121-.859.121-1.306C318.13 236.208 317.699 234.839 316.965 233.68zM104.5 399.03h102.55l-.18.67c-.68 2.59.06 5.34 1.95 7.229 1.42 1.42 3.34 2.19 5.3 2.19.64 0 1.29-.08 1.92-.24l37.18-9.85h57.41c4.14 0 7.5-3.36 7.5-7.5 0-1.475-.431-2.844-1.163-4.002-1.33 2.102-3.668 3.502-6.337 3.502h-57.41l-37.18 9.85c-.63.16-1.28.24-1.92.24-1.96 0-3.88-.771-5.3-2.19-1.89-1.89-2.63-4.64-1.95-7.229l.18-.67H104.5c-2.669 0-5.007-1.4-6.337-3.502C97.431 388.686 97 390.055 97 391.53 97 395.67 100.36 399.03 104.5 399.03zM104.5 347.75h114.021l2.119-8H104.5c-2.668 0-5.006-1.399-6.335-3.5-.733 1.159-1.165 2.528-1.165 4C97 344.389 100.36 347.75 104.5 347.75zM104.5 193.9h206.13c4.14 0 7.5-3.36 7.5-7.5 0-1.472-.431-2.841-1.165-4-1.329 2.101-3.667 3.5-6.335 3.5H104.5c-2.668 0-5.006-1.399-6.335-3.5-.733 1.159-1.165 2.528-1.165 4C97 190.54 100.36 193.9 104.5 193.9z"></path>
    <polygon fill="none" points="254.23 375.24 232.51 353.519 224.68 383.07"></polygon>
    <polygon fill="none" points="399.81 178.39 429.35 207.93 440.22 197.07 410.67 167.53"></polygon>
    <polygon fill="none" points="290.49 376.03 346.45 320.059 346.45 312.059 282.49 376.03"></polygon>
    <path fill="none" d="M291.981,286.23c-0.021,0.02-0.04,0.039-0.061,0.06l-51.24,51.24c-0.01,0.01-0.03,0.029-0.04,0.04l-1.43,1.43   l29.55,29.54l79.79-79.79c0.07-0.07,0.141-0.14,0.21-0.21l69.99-69.99l-29.55-29.54L291.981,286.23z"></path>
    <path fill="#C8EAFC" d="M310.63,376.03c4.14,0,7.5,3.35,7.5,7.5c0,1.471-0.431,2.839-1.163,3.998   c0.732,1.158,1.163,2.527,1.163,4.002c0,4.14-3.36,7.5-7.5,7.5h-57.41l-37.18,9.85c-0.63,0.16-1.28,0.24-1.92,0.24   c-1.96,0-3.88-0.771-5.3-2.19c-1.89-1.89-2.63-4.64-1.95-7.229l0.18-0.67H104.5c-4.14,0-7.5-3.36-7.5-7.5   c0-1.475,0.431-2.844,1.163-4.002C97.431,386.369,97,385.001,97,383.53c0-4.15,3.36-7.5,7.5-7.5h106.53l7.491-28.28H104.5   c-4.14,0-7.5-3.36-7.5-7.5c0-1.472,0.431-2.841,1.165-4c-0.733-1.159-1.165-2.528-1.165-4c0-4.14,3.36-7.5,7.5-7.5h127.75   l28.29-28.29H104.5c-4.14,0-7.5-3.36-7.5-7.5c0-1.472,0.431-2.841,1.165-4c-0.733-1.159-1.165-2.528-1.165-4   c0-4.14,3.36-7.5,7.5-7.5h179.04l28.396-28.401c-0.425,0.075-0.86,0.122-1.307,0.122H104.5c-4.14,0-7.5-3.36-7.5-7.5   c0-1.472,0.431-2.841,1.165-4c-0.733-1.159-1.165-2.528-1.165-4c0-4.14,3.36-7.5,7.5-7.5h206.13c4.14,0,7.5,3.36,7.5,7.5   c0,1.472-0.431,2.841-1.165,4c0.734,1.159,1.165,2.528,1.165,4c0,0.446-0.046,0.881-0.121,1.306l28.441-28.446V93.22   c0-7.57-6.15-13.72-13.71-13.72H82.39c-7.56,0-13.71,6.15-13.71,13.72v333.56c0,7.569,6.15,13.72,13.71,13.72h250.35   c7.56,0,13.71-6.15,13.71-13.72V320.059L290.49,376.03H310.63z M151.63,127.12c0-4.15,3.36-7.5,7.5-7.5H256   c4.14,0,7.5,3.35,7.5,7.5c0,1.471-0.431,2.839-1.163,3.998c0.732,1.158,1.163,2.528,1.163,4.002c0,4.14-3.36,7.5-7.5,7.5h-96.87   c-4.14,0-7.5-3.36-7.5-7.5c0-1.475,0.431-2.844,1.163-4.002C152.061,129.959,151.63,128.591,151.63,127.12z M97,178.4   c0-4.14,3.36-7.5,7.5-7.5h206.13c4.14,0,7.5,3.36,7.5,7.5c0,1.472-0.431,2.841-1.165,4c0.734,1.159,1.165,2.528,1.165,4   c0,4.14-3.36,7.5-7.5,7.5H104.5c-4.14,0-7.5-3.36-7.5-7.5c0-1.472,0.431-2.841,1.165-4C97.431,181.241,97,179.872,97,178.4z"></path>
    <path fill="#0680EF" d="M456.13,191.77l-40.149-40.15c-2.931-2.93-7.681-2.93-10.61,0l-21.48,21.47c-0.029,0.04-0.06,0.08-0.1,0.12   l-22.34,22.33V85.22c0-15.84-12.88-28.72-28.71-28.72H82.39c-15.83,0-28.71,12.88-28.71,28.72v341.56   c0,15.84,12.88,28.72,28.71,28.72h250.35c15.83,0,28.71-12.88,28.71-28.72V297.059l73.21-73.209c0.04-0.04,0.07-0.08,0.1-0.11   l21.37-21.37c1.4-1.4,2.19-3.31,2.19-5.3C458.321,195.08,457.531,193.17,456.13,191.77z M346.45,320.059V426.78   c0,7.569-6.15,13.72-13.71,13.72H82.39c-7.56,0-13.71-6.15-13.71-13.72V93.22v-8c0-7.57,6.15-13.72,13.71-13.72h250.35   c7.56,0,13.71,6.15,13.71,13.72v8v117.32l-28.441,28.446l-6.072,6.073L283.54,273.46H104.5c-4.14,0-7.5,3.36-7.5,7.5   c0,1.472,0.431,2.841,1.165,4c1.33,2.101,3.667,3.5,6.335,3.5h164.04l-8,8l-28.29,28.29H104.5c-4.14,0-7.5,3.36-7.5,7.5   c0,1.472,0.431,2.841,1.165,4c1.33,2.101,3.667,3.5,6.335,3.5h116.14l-2.119,8l-7.491,28.28H104.5c-4.14,0-7.5,3.35-7.5,7.5   c0,1.471,0.431,2.839,1.163,3.998c1.33,2.102,3.668,3.502,6.337,3.502h102.55l-0.18,0.67c-0.68,2.59,0.06,5.34,1.95,7.229   c1.42,1.42,3.34,2.19,5.3,2.19c0.64,0,1.29-0.08,1.92-0.24l37.18-9.85h57.41c2.669,0,5.007-1.4,6.337-3.502   c0.732-1.159,1.163-2.527,1.163-3.998c0-4.15-3.36-7.5-7.5-7.5H290.49h-7.999l63.96-63.971V320.059z M232.51,353.519l21.72,21.721   l-29.55,7.83L232.51,353.519z M348.76,288.54c-0.069,0.07-0.14,0.14-0.21,0.21l-79.79,79.79L239.21,339l1.43-1.43   c0.01-0.011,0.03-0.03,0.04-0.04l51.24-51.24c0.021-0.021,0.04-0.04,0.061-0.06l97.22-97.221l29.55,29.54L348.76,288.54z    M429.35,207.93l-29.54-29.54l10.86-10.86l29.55,29.54L429.35,207.93z"></path>
    <path fill="#0680EF" d="M159.13 134.62H256c2.669 0 5.007-1.401 6.337-3.502.732-1.158 1.163-2.526 1.163-3.998 0-4.15-3.36-7.5-7.5-7.5h-96.87c-4.14 0-7.5 3.35-7.5 7.5 0 1.471.431 2.839 1.163 3.998C154.123 133.219 156.462 134.62 159.13 134.62zM104.5 185.9h206.13c2.668 0 5.006-1.399 6.335-3.5.734-1.159 1.165-2.528 1.165-4 0-4.14-3.36-7.5-7.5-7.5H104.5c-4.14 0-7.5 3.36-7.5 7.5 0 1.472.431 2.841 1.165 4C99.494 184.5 101.832 185.9 104.5 185.9zM104.5 237.18h206.13c2.668 0 5.006-1.4 6.335-3.5.734-1.159 1.165-2.528 1.165-4 0-4.14-3.36-7.5-7.5-7.5H104.5c-4.14 0-7.5 3.36-7.5 7.5 0 1.472.431 2.841 1.165 4C99.494 235.78 101.832 237.18 104.5 237.18z"></path>
  </g>
</svg>
