<svg xmlns="http://www.w3.org/2000/svg" viewBox="0 0 260 260" id="spreadsheet">
  <path fill="#EDF5F9" d="M230.397 247.719h-70.775c-6.215 0-11.271-5.056-11.271-11.27 0-5.112-4.16-9.271-9.27-9.271H17.892c-5.48 0-9.936-4.457-9.936-9.937s4.457-9.936 9.936-9.936h52.704c5.111 0 9.27-4.16 9.27-9.27v-10.506c0-5.111-4.159-9.27-9.27-9.27H23.103c-6.215 0-11.27-5.056-11.27-11.27v-33.036c0-6.215 5.055-11.27 11.27-11.27h80.978c5.112 0 9.271-4.16 9.271-9.27V67.08c0-5.111-4.16-9.27-9.27-9.27H37.734c-6.88 0-12.475-5.596-12.475-12.474s5.596-12.474 12.475-12.474h97.55c5.111 0 9.27-4.159 9.27-9.27v-5.517c0-6.214 5.056-11.27 11.27-11.27H232.6c6.215 0 11.27 5.056 11.27 11.27v41.149c0 6.214-5.055 11.27-11.27 11.27h-45.297c-13.289 0-24.161 10.546-24.688 23.708h41.795c4.75 0 8.615 3.864 8.615 8.614s-3.865 8.616-8.615 8.616h-48.584c-5.112 0-9.27 4.159-9.27 9.27v24.533c0 5.112 4.158 9.27 9.27 9.27h85.955c6.215 0 11.27 5.056 11.27 11.27v1.212c0 6.215-5.055 11.27-11.27 11.27h-57.729a2.591 2.591 0 0 0-2.588 2.59 2.591 2.591 0 0 0 2.588 2.588h46.345c6.215 0 11.27 5.055 11.27 11.27v41.742c0 6.215-5.055 11.27-11.27 11.27zM17.892 209.305c-4.376 0-7.936 3.56-7.936 7.936s3.56 7.937 7.936 7.937h121.189c6.214 0 11.27 5.055 11.27 11.27 0 5.112 4.16 9.27 9.27 9.27h70.776c5.111 0 9.27-4.158 9.27-9.27v-41.742c0-5.111-4.159-9.27-9.27-9.27h-46.345a4.594 4.594 0 0 1-4.588-4.588 4.594 4.594 0 0 1 4.588-4.59h57.729c5.111 0 9.27-4.158 9.27-9.27v-1.212c0-5.111-4.159-9.27-9.27-9.27h-85.955c-6.215 0-11.27-5.056-11.27-11.27v-24.533c0-6.215 5.055-11.27 11.27-11.27h48.584c3.647 0 6.615-2.968 6.615-6.616s-2.968-6.614-6.615-6.614h-42.815a1 1 0 0 1-1-1c0-14.726 11.982-26.708 26.708-26.708H232.6c5.111 0 9.27-4.16 9.27-9.27V18.076c0-5.111-4.159-9.27-9.27-9.27h-76.774c-5.112 0-9.27 4.159-9.27 9.27v5.517c0 6.215-5.057 11.27-11.271 11.27h-97.55c-5.776 0-10.475 4.699-10.475 10.474s4.7 10.474 10.475 10.474h66.346c6.215 0 11.271 5.055 11.271 11.27v46.331c0 6.215-5.056 11.27-11.27 11.27H23.102c-5.111 0-9.27 4.16-9.27 9.271v33.035c0 5.112 4.159 9.27 9.27 9.27h47.493c6.215 0 11.27 5.056 11.27 11.271v10.505c0 6.215-5.055 11.27-11.27 11.27H17.892z"></path>
  <path fill="#EDF5F9" d="M25.014 92.61c-1.741 0-3.157-1.416-3.157-3.157s1.416-3.157 3.157-3.157 3.157 1.416 3.157 3.157-1.416 3.157-3.157 3.157zm0-4.314c-.638 0-1.157.52-1.157 1.157s.52 1.157 1.157 1.157 1.157-.52 1.157-1.157-.52-1.157-1.157-1.157zm35.328-69.988c-1.741 0-3.157-1.416-3.157-3.158s1.416-3.157 3.157-3.157S63.5 13.41 63.5 15.15s-1.417 3.158-3.158 3.158zm0-4.315c-.637 0-1.157.52-1.157 1.157s.52 1.158 1.157 1.158c.639 0 1.158-.52 1.158-1.158s-.52-1.157-1.158-1.157zm186.047 91.348c-1.741 0-3.157-1.416-3.157-3.157s1.416-3.159 3.157-3.159 3.157 1.417 3.157 3.159-1.416 3.157-3.157 3.157zm0-4.316a1.16 1.16 0 0 0-1.157 1.159c0 .637.52 1.157 1.157 1.157s1.157-.52 1.157-1.157a1.16 1.16 0 0 0-1.157-1.159zm-42.5-58.182a3.7 3.7 0 0 1-3.697-3.697 3.7 3.7 0 0 1 3.696-3.697 3.7 3.7 0 0 1 3.697 3.697 3.701 3.701 0 0 1-3.697 3.697zm0-5.394a1.698 1.698 0 0 0 0 3.394c.935 0 1.696-.762 1.696-1.697s-.761-1.697-1.697-1.697zM36.485 151.457a1 1 0 0 1-1-1v-5.898a1 1 0 1 1 2 0v5.898a1 1 0 0 1-1 1z"></path>
  <path fill="#EDF5F9" d="M39.435 148.508h-5.898a1 1 0 1 1 0-2h5.898a1 1 0 1 1 0 2zm-34.436 54.35a1 1 0 0 1-1-1v-5.899a1 1 0 1 1 2 0v5.898a1 1 0 0 1-1 1z"></path>
  <path fill="#EDF5F9" d="M7.949 199.908H2.05a1 1 0 1 1 0-2H7.95a1 1 0 1 1 0 2zM233.564 29.116a1 1 0 0 1-1-1V22.22a1 1 0 1 1 2 0v5.897a1 1 0 0 1-1 1z"></path>
  <path fill="#EDF5F9" d="M236.513 26.167h-5.897a1 1 0 1 1 0-2h5.897a1 1 0 1 1 0 2zM231.93 133.9a1 1 0 0 1-1-1v-5.898a1 1 0 1 1 2 0v5.898a1 1 0 0 1-1 1z"></path>
  <path fill="#EDF5F9" d="M234.878 130.951h-5.898a1 1 0 1 1 0-2h5.898a1 1 0 1 1 0 2zM58.185 165.627c-1.741 0-3.157-1.416-3.157-3.157s1.416-3.158 3.157-3.158 3.157 1.417 3.157 3.158-1.416 3.157-3.157 3.157zm0-4.315a1.159 1.159 0 0 0 0 2.314c.638.001 1.157-.519 1.157-1.156s-.52-1.157-1.157-1.157zM109.014 244.61c-1.741 0-3.157-1.416-3.157-3.157s1.416-3.157 3.157-3.157 3.157 1.416 3.157 3.157-1.416 3.157-3.157 3.157zm0-4.314c-.638 0-1.157.52-1.157 1.157s.52 1.157 1.157 1.157 1.157-.52 1.157-1.157-.52-1.157-1.157-1.157z"></path>
  <g fill="#EDF5F9">
    <path d="M57.564 240.116a1 1 0 0 1-1-1v-5.897a1 1 0 1 1 2 0v5.897a1 1 0 0 1-1 1z"></path>
    <path d="M60.513 237.167h-5.897a1 1 0 1 1 0-2h5.897a1 1 0 1 1 0 2z"></path>
  </g>
  <g fill="#EDF5F9">
    <path d="M210.564 237.116a1 1 0 0 1-1-1v-5.897a1 1 0 1 1 2 0v5.897a1 1 0 0 1-1 1z"></path>
    <path d="M213.513 234.167h-5.897a1 1 0 1 1 0-2h5.897a1 1 0 1 1 0 2z"></path>
  </g>
  <path fill="#434A54" d="M49.5 54.334v185.733c0 6.698 5.428 12.126 12.126 12.126h138.329c6.698 0 12.127-5.428 12.127-12.126V94.86c0-1.942-.431-3.832-1.23-5.554a13.41 13.41 0 0 0-2.74-3.864L167.45 45.851a12.929 12.929 0 0 0-3.748-2.5 12.895 12.895 0 0 0-5.345-1.144h-96.73c-6.698 0-12.126 5.428-12.126 12.127z"></path>
  <path fill="#EDF5F9" d="M223.028 94.861v145.206c0 6.698-5.428 12.126-12.126 12.126H72.573c-6.698 0-12.127-5.428-12.127-12.126V54.334c0-6.699 5.429-12.127 12.127-12.127h96.73c1.859 0 3.685.389 5.344 1.145a12.938 12.938 0 0 1 3.749 2.499l40.664 39.592a13.43 13.43 0 0 1 2.74 3.864 13.205 13.205 0 0 1 1.228 5.554z"></path>
  <path fill="#FFF" d="M120.828 42.207v94.011c0 6.699-5.428 12.127-12.126 12.127H60.446V54.334c0-6.699 5.429-12.127 12.127-12.127h48.255z"></path>
  <path fill="#C9DBE7" d="M223.028 94.861v145.206c0 6.698-5.428 12.126-12.126 12.126H72.573c-6.698 0-12.127-5.428-12.127-12.126v-3.727H195.31c6.699 0 12.127-5.429 12.127-12.127V79.007a13.197 13.197 0 0 0-1.775-6.604l13.398 13.04a13.43 13.43 0 0 1 2.74 3.864 13.205 13.205 0 0 1 1.228 5.554z"></path>
  <path fill="#FFD372" d="M79.345 112.224h124.784v20.178H79.345z"></path>
  <path fill="#FFF" d="M79.345 132.403h124.784v20.178H79.345zM79.345 152.581h124.784v20.178H79.345zM79.345 172.76h124.784v20.178H79.345zM79.345 192.938h124.784v20.178H79.345z"></path>
  <path fill="#FF6060" d="M79.345 213.117h62.392v20.178H79.345z"></path>
  <path fill="#3FD0FC" d="M174.647 43.352V83.03a6.277 6.277 0 0 0 6.278 6.277h40.874a13.41 13.41 0 0 0-2.74-3.864l-40.664-39.592a12.929 12.929 0 0 0-3.748-2.5z"></path>
  <g fill="#31394C">
    <path d="M204.13 111.225H79.344a1 1 0 0 0-1 1v121.07a1 1 0 0 0 1 1h62.393a1 1 0 0 0 1-1v-19.179h62.391V112.225a1 1 0 0 0-1-1zm-63.393 22.177v18.18H111.54v-18.18h29.196zm-29.196-2v-18.177h29.196v18.177H111.54zm29.196 22.18v18.178H111.54V153.58h29.196zm0 20.178v18.178H111.54V173.76h29.196zm0 20.178v18.178H111.54v-18.178h29.196zm0 20.178v18.179H111.54v-18.179h29.196zm2-20.178h29.196v18.178h-29.196v-18.178zm0-2V173.76h29.196v18.178h-29.196zm0-20.178V153.58h29.196v18.179h-29.196zm0-20.179v-18.179h29.196v18.18h-29.196zm0-20.179v-18.177h29.196v18.177h-29.196zm-62.392-18.177h29.196v18.177H80.345v-18.177zm0 20.177h29.196v18.18H80.345v-18.18zm0 20.18h29.196v18.178H80.345V153.58zm0 20.178h29.196v18.178H80.345V173.76zm29.196 20.178v18.178H80.345v-18.178h29.196zm-29.196 20.178h29.196v18.179H80.345v-18.179zm122.784-2h-29.196v-18.178h29.196v18.178zm0-20.178h-29.196V173.76h29.196v18.178zm0-20.178h-29.196V153.58h29.196v18.179zm-29.196-20.179v-18.179h29.196v18.18h-29.196zm0-20.179v-18.177h29.196v18.177h-29.196zm-95.03-65.651h79.49a1 1 0 1 0 0-2h-79.49a1 1 0 1 0 0 2zm51.887 21.26a1 1 0 1 0 0-2H78.903a1 1 0 1 0 0 2h51.887z"></path>
    <path d="M257.949 251.193h-40.117c3.713-2.321 6.196-6.434 6.196-11.127V94.861c0-3.91-1.599-7.512-4.272-10.134l-40.672-39.6a14.292 14.292 0 0 0-9.78-3.92H61.625c-7.238 0-13.127 5.889-13.127 13.127v185.732c0 4.693 2.483 8.806 6.196 11.127H7.949a1 1 0 1 0 0 2h250a1 1 0 1 0 0-2zm-39.59-165.036c.639.627 1.262 1.412 1.734 2.15h-39.169a5.284 5.284 0 0 1-5.277-5.278V45.007a12.31 12.31 0 0 1 2.05 1.56l40.662 39.59zM61.626 251.193c-6.135 0-11.127-4.99-11.127-11.127V54.334c0-6.136 4.992-11.127 11.127-11.127h4.016c-3.713 2.321-6.195 6.435-6.195 11.127v185.732c0 4.693 2.482 8.806 6.195 11.127h-4.016zm10.947 0c-6.135 0-11.126-4.99-11.126-11.127V54.334c0-6.136 4.99-11.127 11.126-11.127h96.73c1.493 0 2.974.293 4.344.827v38.995c0 4.014 3.265 7.279 7.277 7.279h40.2c.588 1.456.904 2.981.904 4.553v145.205c0 6.136-4.991 11.127-11.127 11.127H72.573z"></path>
  </g>
</svg>
