<?xml version="1.0" encoding="UTF-8" standalone="no"?>
<!DOCTYPE svg PUBLIC "-//W3C//DTD SVG 1.1//EN" "http://www.w3.org/Graphics/SVG/1.1/DTD/svg11.dtd">
<svg width="100%" height="100%" viewBox="0 0 800 800" version="1.1" xmlns="http://www.w3.org/2000/svg" xmlns:xlink="http://www.w3.org/1999/xlink" xml:space="preserve" xmlns:serif="http://www.serif.com/" style="fill-rule:evenodd;clip-rule:evenodd;stroke-linejoin:round;stroke-miterlimit:2;">
    <path d="M19.987,777.207L73.675,581.174C40.553,523.802 23.134,458.711 23.155,392.048C23.242,183.465 193,13.768 401.579,13.768C502.813,13.813 597.827,53.211 669.264,124.715C740.717,196.219 780.043,291.264 780.002,392.344C779.915,600.933 610.147,770.645 401.594,770.645C401.579,770.645 401.605,770.645 401.594,770.645L401.426,770.645C338.095,770.625 275.866,754.727 220.597,724.605L19.987,777.207Z" style="fill:url(#_Linear1);fill-rule:nonzero;"/>
    <path d="M303.671,228.107C296.335,211.796 288.611,211.47 281.631,211.184C275.922,210.939 269.386,210.954 262.861,210.954C256.33,210.954 245.718,213.408 236.744,223.209C227.765,233.011 202.459,256.704 202.459,304.892C202.459,353.085 237.56,399.651 242.453,406.192C247.351,412.722 310.212,514.772 409.767,554.032C492.506,586.659 509.343,580.169 527.302,578.536C545.26,576.903 585.249,554.848 593.413,531.975C601.576,509.108 601.576,489.507 599.127,485.409C596.678,481.328 590.147,478.879 580.352,473.981C570.556,469.083 522.404,445.385 513.424,442.119C504.445,438.854 497.914,437.221 491.384,447.028C484.853,456.823 466.093,478.879 460.379,485.409C454.664,491.955 448.95,492.771 439.154,487.873C429.359,482.961 397.813,472.629 360.39,439.262C331.273,413.303 311.615,381.242 305.901,371.436C300.187,361.64 305.288,356.334 310.202,351.451C314.6,347.064 319.998,340.018 324.896,334.298C329.783,328.579 331.416,324.497 334.681,317.967C337.946,311.426 336.314,305.707 333.865,300.809C331.416,295.911 312.381,247.474 303.671,228.107Z" style="fill:white;"/>
    <defs>
        <linearGradient id="_Linear1" x1="0" y1="0" x2="1" y2="0" gradientUnits="userSpaceOnUse" gradientTransform="matrix(4.67471e-14,-763.438,763.438,4.67471e-14,399.995,777.207)"><stop offset="0" style="stop-color:rgb(32,176,56);stop-opacity:1"/><stop offset="1" style="stop-color:rgb(96,214,106);stop-opacity:1"/></linearGradient>
    </defs>
</svg>
