<svg xmlns="http://www.w3.org/2000/svg" viewBox="0 0 50 50" id="workflow">
  <g>
    <path fill="#e8ebf7" d="M5,11H45a0,0,0,0,1,0,0V45a2,2,0,0,1-2,2H7a2,2,0,0,1-2-2V11A0,0,0,0,1,5,11Z"></path>
    <circle cx="13" cy="19" r="4" fill="#f5c265"></circle>
    <path fill="#d38d78" d="M29,39a4,4,0,1,1-4-4,4,4,0,0,1,4,4"></path>
    <rect width="8" height="8" x="9" y="35" fill="#f47979" rx="2"></rect>
    <rect width="7.071" height="7.071" x="21.464" y="15.464" fill="#5999c1" rx="1" transform="rotate(45 25 19)"></rect>
    <rect width="7.071" height="7.071" x="33.172" y="35.464" fill="#f5c265" rx="1" transform="rotate(45 36.707 39)"></rect>
    <path fill="#c9ccf6" d="M7,3H43a2,2,0,0,1,2,2v6a0,0,0,0,1,0,0H5a0,0,0,0,1,0,0V5A2,2,0,0,1,7,3Z"></path>
    <path d="M43,2H7A3.00328,3.00328,0,0,0,4,5V45a3.00328,3.00328,0,0,0,3,3H43a3.00328,3.00328,0,0,0,3-3V5A3.00328,3.00328,0,0,0,43,2Zm1,3v5H40.6182l-3-6H43A1.00094,1.00094,0,0,1,44,5Zm-9.3818,5-3-6h3.7636l3,6ZM7,4H29.3818l3,6H6V5A1.00094,1.00094,0,0,1,7,4ZM43,46H7a1.00094,1.00094,0,0,1-1-1V12H44V45A1.00094,1.00094,0,0,1,43,46Z"></path>
    <path d="M9 8h2a1 1 0 000-2H9A1 1 0 009 8zM15 8h2a1 1 0 000-2H15a1 1 0 000 2zM21 8h2a1 1 0 000-2H21a1 1 0 000 2zM38.1211 34a2.001 2.001 0 00-2.8281 0l-3.586 3.5859A1.9766 1.9766 0 0031.3981 38H29.8989A5.01424 5.01424 0 0026 34.1011V24.3089A1.97055 1.97055 0 0026.4141 24L30 20.4141a2.00108 2.00108 0 000-2.8282L26.4141 14a2.00108 2.00108 0 00-2.8282 0L20 17.5859A1.9771 1.9771 0 0019.691 18H17.8989A5 5 0 1012 23.8989V34H11a3.00328 3.00328 0 00-3 3v4a3.00328 3.00328 0 003 3h4a3.00328 3.00328 0 003-3V37a3.00328 3.00328 0 00-3-3H14V23.8989A5.01424 5.01424 0 0017.8989 20H19.691a1.9771 1.9771 0 00.309.4141L23.5859 24A1.97055 1.97055 0 0024 24.3089v9.7922A5 5 0 1029.8989 40h1.4992a1.9766 1.9766 0 00.3089.4141L35.293 44a2.00151 2.00151 0 002.8281 0l3.5859-3.5859a2.00108 2.00108 0 000-2.8282zM16 37v4a1.00094 1.00094 0 01-1 1H11a1.00094 1.00094 0 01-1-1V37a1.00094 1.00094 0 011-1h4A1.00094 1.00094 0 0116 37zM13 22a3 3 0 113-3A3.00328 3.00328 0 0113 22zm8.4141-3L25 15.4141 28.5859 19 25.001 22.5869zM25 42a3 3 0 113-3A3.00328 3.00328 0 0125 42zm11.708.5869L33.1211 39l3.5859-3.5859L40.293 39zM35 17h6a1 1 0 000-2H35a1 1 0 000 2zM35 21h6a1 1 0 000-2H35a1 1 0 000 2zM41 23H37a1 1 0 000 2h4a1 1 0 000-2z"></path>
  </g>
</svg>
